<svg xmlns="http://www.w3.org/2000/svg" width="21.5" height="25" viewBox="0 0 21.5 25">
  <defs>
    <style>
      .cls-1 {
        fill-rule: evenodd;
      }
    </style>
  </defs>
  <path id="Forma_1" data-name="Forma 1" class="cls-1" d="M416.507,586.688a0.682,0.682,0,0,0-.6-0.66,23.519,23.519,0,0,1-4.73-1.127,35.5,35.5,0,0,1-5.086-2.3,0.663,0.663,0,0,0-.686,0,34.515,34.515,0,0,1-5.073,2.3,23.731,23.731,0,0,1-4.717,1.127,0.734,0.734,0,0,0-.623.66q-0.23,9.423,4.272,15.419a18.9,18.9,0,0,0,6.141,5.292,0.705,0.705,0,0,0,.712,0,19.363,19.363,0,0,0,6.116-5.292Q416.735,596.116,416.507,586.688Zm-5.417,14.648a17.928,17.928,0,0,1-5.34,4.715,17.775,17.775,0,0,1-5.34-4.715q-4.088-5.488-4.005-14.048a24.714,24.714,0,0,0,4.476-1.151,37.861,37.861,0,0,0,4.869-2.167,37.822,37.822,0,0,0,4.857,2.167,24.823,24.823,0,0,0,4.489,1.151Q415.171,595.9,411.09,601.336Z" transform="translate(-395 -582.5)"/>
</svg>
