<svg xmlns="http://www.w3.org/2000/svg" width="22" height="25" viewBox="0 0 22 25">
  <defs>
    <style>
      .cls-1 {
        fill: #737373;
        fill-rule: evenodd;
      }
    </style>
  </defs>
  <path id="ic_user_input" class="cls-1" d="M814.906,980.47h0.172a5.023,5.023,0,0,0,3.776-1.579c2.062-2.247,1.719-6.1,1.681-6.466a5.255,5.255,0,0,0-2.6-4.7,6.132,6.132,0,0,0-2.882-.73h-0.091a6.134,6.134,0,0,0-2.881.71,5.256,5.256,0,0,0-2.63,4.716c-0.038.368-.38,4.219,1.682,6.466A5,5,0,0,0,814.906,980.47Zm-4.022-7.916c0-.015,0-0.031,0-0.041,0.177-3.712,2.9-4.11,4.071-4.11h0.064c1.446,0.031,3.9.6,4.071,4.11a0.1,0.1,0,0,0,0,.041c0,0.037.38,3.557-1.323,5.411a3.569,3.569,0,0,1-2.758,1.107h-0.054a3.558,3.558,0,0,1-2.753-1.107C810.514,976.121,810.878,972.586,810.884,972.554ZM826,986.859v-0.016c0-.041,0-0.083,0-0.129-0.032-1.025-.1-3.422-2.426-4.189l-0.054-.015a15.691,15.691,0,0,1-4.445-1.957,0.738,0.738,0,0,0-1.007.171,0.683,0.683,0,0,0,.177.973,16.9,16.9,0,0,0,4.89,2.159c1.247,0.429,1.387,1.719,1.424,2.9a0.886,0.886,0,0,0,.006.129,9.1,9.1,0,0,1-.113,1.6,22.048,22.048,0,0,1-18.89,0,8.64,8.64,0,0,1-.113-1.6c0-.041.006-0.082,0.006-0.129,0.037-1.18.176-2.47,1.424-2.9a17.088,17.088,0,0,0,4.89-2.159,0.683,0.683,0,0,0,.177-0.973,0.738,0.738,0,0,0-1.007-.171,15.513,15.513,0,0,1-4.445,1.957c-0.022,0-.038.01-0.054,0.015-2.324.772-2.394,3.169-2.426,4.188a0.9,0.9,0,0,1-.006.13v0.015a7.7,7.7,0,0,0,.274,2.346,0.664,0.664,0,0,0,.278.326,23.328,23.328,0,0,0,20.91,0,0.69,0.69,0,0,0,.278-0.326A8.034,8.034,0,0,0,826,986.859Z" transform="translate(-804 -967)"/>
</svg>
