<svg xmlns="http://www.w3.org/2000/svg" width="13.531" height="10" viewBox="0 0 13.531 10">
  <defs>
    <style>
      .cls-1 {
        fill: #fff;
        fill-rule: evenodd;
      }
    </style>
  </defs>
  <path id="ic_youtube" class="cls-1" d="M531.229,5642.6a1.747,1.747,0,0,0-1.462-1.41,64.185,64.185,0,0,0-10.126,0,1.749,1.749,0,0,0-1.461,1.41,24.486,24.486,0,0,0,0,6.79,1.738,1.738,0,0,0,1.462,1.41,64.185,64.185,0,0,0,10.126,0,1.737,1.737,0,0,0,1.461-1.41A24.589,24.589,0,0,0,531.229,5642.6Zm-8.271,5.63v-4.75c1.432,0.79,2.856,1.58,4.3,2.38C525.818,5646.65,524.394,5647.43,522.958,5648.23Z" transform="translate(-517.938 -5641)"/>
</svg>
