<svg xmlns="http://www.w3.org/2000/svg" width="35" height="40.5" viewBox="0 0 35 40.5">
  <defs>
    <style>
      .cls-1 {
        fill: #0070c9;
        fill-rule: evenodd;
      }
    </style>
  </defs>
  <path id="Forma_1" data-name="Forma 1" class="cls-1" d="M18,14.957c-1.012,0-1.731.425-1.731,1.051v8.517A1.536,1.536,0,0,0,18,25.6a1.6,1.6,0,0,0,1.753-1.073V16.008C19.754,15.382,18.967,14.957,18,14.957ZM18,9.7a1.738,1.738,0,0,0-1.843,1.587,1.848,1.848,0,0,0,3.664,0A1.731,1.731,0,0,0,18,9.7Zm0-9.2a17.381,17.381,0,0,0-5.3,33.973l3.98,5.834a1.6,1.6,0,0,0,2.633,0l3.98-5.834A17.381,17.381,0,0,0,18,.5Zm3.869,31.095a1.592,1.592,0,0,0-.888.635L18,36.6l-2.981-4.37a1.591,1.591,0,0,0-.888-0.635A14.319,14.319,0,1,1,21.869,31.595Z" transform="translate(-0.5 -0.5)"/>
</svg>
