<?xml version="1.0" encoding="utf-8"?>
<!-- Generator: Adobe Illustrator 19.2.1, SVG Export Plug-In . SVG Version: 6.00 Build 0)  -->
<svg version="1.1" id="Слой_1" xmlns="http://www.w3.org/2000/svg" xmlns:xlink="http://www.w3.org/1999/xlink" x="0px" y="0px"
	 viewBox="0 0 53.5 10.8" style="enable-background:new 0 0 53.5 10.8;" xml:space="preserve">
<style type="text/css">
	.st0{fill-rule:evenodd;clip-rule:evenodd;fill:#BE1238;}
</style>
<g>
	<g>
		<path d="M16.2,5.2c0.4-0.2,0.6-0.6,0.6-1.3V3.7c0-1-0.4-1.4-1.4-1.4H14v6.2h1.5C16.5,8.5,17,8,17,7V6.5C17,5.9,16.8,5.4,16.2,5.2z
			 M14.9,3.2h0.5c0.3,0,0.5,0.2,0.5,0.6v0.3c0,0.5-0.2,0.7-0.6,0.7h-0.4V3.2z M16,7c0,0.5-0.2,0.6-0.5,0.6h-0.6V5.7h0.4
			c0.4,0,0.6,0.2,0.6,0.8V7z M17.9,8.5h1V2.3h-1V8.5z M21.5,2.3h-1.5v6.2h1.5c1,0,1.5-0.5,1.5-1.5V3.8C22.9,2.8,22.5,2.3,21.5,2.3z
			 M22,7c0,0.4-0.2,0.6-0.5,0.6h-0.5V3.2h0.5c0.3,0,0.5,0.2,0.5,0.6V7z M25.9,7.1c0,0.4-0.2,0.6-0.5,0.6c-0.3,0-0.5-0.2-0.5-0.6V2.3
			h-1V7c0,1,0.5,1.6,1.5,1.6c1,0,1.5-0.6,1.5-1.6V2.3h-0.9V7.1z M28.7,3.7c0-0.4,0.2-0.6,0.5-0.6c0.3,0,0.5,0.2,0.5,0.6V4h0.9V3.8
			c0-1-0.5-1.6-1.4-1.6c-0.9,0-1.4,0.6-1.4,1.6c0,1.8,1.9,2,1.9,3.3c0,0.4-0.2,0.6-0.5,0.6c-0.3,0-0.5-0.2-0.5-0.6V6.6h-0.9V7
			c0,1,0.5,1.6,1.5,1.6c1,0,1.5-0.6,1.5-1.6C30.6,5.2,28.7,5,28.7,3.7z M34.6,2.3h-1.4v6.2h1.4c1,0,1.4-0.6,1.4-1.6V3.8
			C35.9,2.9,35.5,2.3,34.6,2.3z M35.5,7c0,0.7-0.3,1.2-1,1.2h-0.9V2.6h0.9c0.7,0,1,0.5,1,1.2V7z M37,8.5h0.4V2.3H37V8.5z M39.8,2.2
			c-0.9,0-1.3,0.7-1.3,1.6V7c0,0.9,0.4,1.6,1.3,1.6c0.9,0,1.3-0.7,1.3-1.6V5.3h-1.2v0.4h0.8V7c0,0.7-0.3,1.2-0.9,1.2
			c-0.7,0-0.9-0.5-0.9-1.2V3.8c0-0.7,0.3-1.2,0.9-1.2c0.7,0,0.9,0.5,0.9,1.2v0.5h0.4V3.8C41.1,2.9,40.7,2.2,39.8,2.2z M42.1,8.5h0.4
			V2.3h-0.4V8.5z M43.4,2.6h1.3v5.9h0.4V2.6h1.3V2.3h-2.9V2.6z M48.2,2.3l-1.4,6.2h0.4l0.3-1.4h1.9l0.3,1.4h0.4l-1.4-6.2H48.2z
			 M47.6,6.8l0.9-4l0.9,4H47.6z M51.5,8.1V2.3h-0.4v6.2h2.4V8.1H51.5z"/>
	</g>
</g>
<path class="st0" d="M10,8.3c-1.5,2.5-3.8,2.5-3.8,2.5S7,10.5,7.5,9.9c0.5-0.5,0.6-1,0.6-1s-1.2,1.9-3.7,1.7
	c-2.3-0.1-3.6-2.1-3.6-2.1s0.8,0.4,1.6,0.6c0.9,0.2,1.2,0,1.2,0s-1.9-0.1-3-1.6c-1-1.2-0.5-2.9-0.5-2.9s0.1,0.7,0.4,1.2
	c0.3,0.6,0.8,0.7,0.8,0.7S0.4,5.3,0.4,4.1c0-1.4,1-2.3,1-2.3S1.3,2.4,1.3,2.9c0,0.4,0.3,0.7,0.3,0.7S1.2,2.4,2.2,1.2
	C3,0.1,4.6,0,4.6,0S3.9,0.3,3.5,0.6C3.1,0.9,3.1,1.3,3.1,1.3S3.8,0.2,6,0.2c2.1,0.1,3.2,1.5,3.2,1.5c0,0-1.8-2-4.5-0.7
	C2.3,2.2,2.5,4.7,2.5,4.7s0.1-0.4,0.4-0.8c0.2-0.3,0.6-0.6,0.6-0.6s-0.1,0-0.2,0c-0.1,0-0.1,0-0.1,0s0.2-0.4,0.6-0.6
	c0.4-0.3,0.9-0.4,0.9-0.4s-0.1,0-0.2-0.1c-0.2,0-0.3,0-0.3,0S4.3,2.1,4.7,2C5,1.9,5.5,2,5.5,2S5.4,1.8,5.3,1.7
	C5.1,1.5,4.9,1.4,4.9,1.4c0,0,1.3,0.1,2.4,1.6c1.2,1.5,1.5,3,1.5,3s0,0.1,0,0.1C8.7,6.3,8.6,6.4,8.5,6.5C8.3,6.7,8.2,6.7,8.2,6.7
	s-0.2,0-0.4,0c-0.3-0.1-0.6-0.2-1-0.3C6.5,6.2,6.2,6.1,6.2,6.1S5.9,5.9,5.6,5.6C5.4,5.5,5.3,5.3,5.2,5.1C4.8,4.5,4.8,4,4.8,4
	S4.4,6,6.5,7.1C7.1,7.4,8,7.4,8.6,7.2c0.7-0.3,1.2-0.9,1.2-0.9s0.5-0.6,0.6-1.4c0.1-0.9-0.2-1.8-0.2-1.8S11.6,5.4,10,8.3z M7.3,4.4
	c0,0.1,0,0.3,0.1,0.3c0,0,0.1,0,0.1,0c0,0,0,0,0,0c0,0,0,0.1,0,0.1c0,0.1,0,0.2,0,0.3c0.2-0.2,0.1-0.5,0-0.7C7.5,4.2,7.3,3.9,7,3.9
	C7.2,4,7.3,4.2,7.3,4.4z M7.3,4.3C7.3,4.3,7.3,4.3,7.3,4.3C7.3,4.3,7.3,4.3,7.3,4.3z M7.3,4.3C7.3,4.3,7.3,4.4,7.3,4.3
	C7.3,4.4,7.3,4.4,7.3,4.3C7.3,4.3,7.3,4.3,7.3,4.3z"/>
</svg>
