<svg xmlns="http://www.w3.org/2000/svg" width="37" height="22" viewBox="0 0 37 22">
  <defs>
    <style>
      .cls-1 {
        fill: #fff;
        fill-rule: evenodd;
      }
    </style>
  </defs>
  <path id="Фигура_599" data-name="Фигура 599" class="cls-1" d="M783.4,6265.99h11.6v0.43c-0.749,0-1.82.11-1.82,1.34v4.14c0,1.24-1.071,1.34-1.819,1.34h-9.785v-5.91C781.582,6266.09,782.655,6265.99,783.4,6265.99ZM769.6,6288h-11.6v-0.43c0.748,0,1.82-.1,1.82-1.34v-4.13c0-1.24,1.07-1.34,1.819-1.34h9.784v5.9C771.417,6287.9,770.345,6288,769.6,6288Zm0-22.01h-11.6v0.43c0.748,0,1.82.11,1.82,1.34v4.14c0,1.24,1.07,1.34,1.819,1.34h9.784v-5.91C771.417,6266.09,770.345,6265.99,769.6,6265.99ZM783.4,6288h11.6v-0.43c-0.749,0-1.82-.1-1.82-1.34v-4.13c0-1.24-1.071-1.34-1.819-1.34h-9.785v5.9C781.582,6287.9,782.655,6288,783.4,6288Zm-3.317-8.76h-7.17v-4.48h7.17v4.48Zm-8.67,0h-11.6v-4.48h11.6v4.48Zm21.771,0h-11.6v-4.48h11.6v4.48Zm-13.1-6h-7.17v-7.25h7.17v7.25Zm0,0h-7.17v-7.25h7.17v7.25Zm0,0h-7.17v-7.25h7.17v7.25Zm0,14.76h-7.17v-7.24h7.17V6288Z" transform="translate(-758 -6266)"/>
</svg>
