<svg xmlns="http://www.w3.org/2000/svg" width="196" height="32.5" viewBox="0 0 196 32.5">
  <defs>
    <style>
      .cls-1 {
        fill: #fff;
        fill-rule: evenodd;
      }
    </style>
  </defs>
  <path id="Фигура_2_копия_2" data-name="Фигура 2 копия 2" class="cls-1" d="M910.194,307.913h-4.621v18.82h4.816c3.062,0,4.649-1.558,4.649-4.463v-1.532c0-1.99-.641-3.416-2.283-4.033,1.364-.618,1.976-1.855,1.976-3.791v-0.673C914.731,309.337,913.367,307.913,910.194,307.913ZM910,318.264c1.392,0,1.977.538,1.977,2.285v1.64c0,1.4-.557,1.856-1.587,1.856h-1.754v-5.781H910Zm0.112-7.663c1.085,0,1.558.592,1.558,1.936v1.048c0,1.506-.7,1.99-1.837,1.99h-1.2V310.6h1.476Zm7.876,16.132h3.062v-18.82h-3.062v18.82Zm6.4,0h4.844c3.062,0,4.565-1.64,4.565-4.651v-9.518c0-3.011-1.5-4.651-4.565-4.651h-4.844v18.82Zm4.788-16.132c0.974,0,1.559.484,1.559,1.829v9.786c0,1.344-.585,1.829-1.559,1.829h-1.726V310.6h1.726Zm7.543-2.688v14.33c0,3.012,1.559,4.733,4.565,4.733s4.566-1.721,4.566-4.733v-14.33h-2.9v14.519c0,1.344-.612,1.828-1.586,1.828s-1.587-.484-1.587-1.828V307.913H936.72Zm11.941,4.517c0,5.376,5.985,6.1,5.985,9.975,0,1.344-.612,1.828-1.586,1.828s-1.587-.484-1.587-1.828v-1.344h-2.895v1.155c0,3.011,1.559,4.733,4.565,4.733s4.565-1.722,4.565-4.733c0-5.377-5.985-6.1-5.985-9.975,0-1.344.557-1.856,1.531-1.856s1.531,0.512,1.531,1.856v0.78h2.895V312.43c0-3.012-1.531-4.733-4.509-4.733S948.661,309.418,948.661,312.43ZM966,307.913v18.82h1.281v-7.744h2.422c3.09,0,4.509-1.478,4.509-4.462v-2.044c0-2.742-1.169-4.57-4.175-4.57H966Zm1.281,9.948v-8.82h2.756c2.171,0,2.895,1.317,2.895,3.362v2.2c0,2.285-.974,3.254-3.229,3.254h-2.422Zm9.937,4.275c0,2.741,1.308,4.758,4.259,4.758,3.007,0,4.315-2.017,4.315-4.758V312.51c0-2.743-1.308-4.759-4.315-4.759-2.951,0-4.259,2.016-4.259,4.759v9.626Zm1.281-9.706c0-2.045.835-3.55,2.978-3.55,2.171,0,3.034,1.5,3.034,3.55v9.786c0,2.044-.863,3.55-3.034,3.55-2.143,0-2.978-1.506-2.978-3.55V312.43Zm10.521-4.517v18.82H990.3v-8.415h2.032c2.227,0,3.646.7,3.646,3.2v2.957a4.281,4.281,0,0,0,.418,2.258h1.336a4.1,4.1,0,0,1-.473-2.258v-2.93c0-2.044-.807-3.416-2.812-3.846,1.921-.43,2.812-1.694,2.812-3.9v-1.64c0-2.663-1.2-4.248-4.176-4.248h-4.064Zm1.281,9.275v-8.147h2.756c2.115,0,2.922,1.21,2.922,3.227v1.774c0,2.527-1.336,3.146-3.618,3.146H990.3Zm15.227,9.545V309.041h3.95v-1.128h-9.21v1.128h3.98v17.692h1.28Zm8.01-9.652v-8.04h6.13v-1.128h-7.41v18.82h1.28v-8.522h5.04v-1.13h-5.04Zm9.11,5.055c0,2.741,1.3,4.758,4.26,4.758,3,0,4.31-2.017,4.31-4.758V312.51c0-2.743-1.31-4.759-4.31-4.759-2.96,0-4.26,2.016-4.26,4.759v9.626Zm1.28-9.706c0-2.045.83-3.55,2.98-3.55,2.17,0,3.03,1.5,3.03,3.55v9.786c0,2.044-.86,3.55-3.03,3.55-2.15,0-2.98-1.506-2.98-3.55V312.43Zm17.92,14.3v-1.128h-6.12V307.913h-1.28v18.82h7.4Zm3.04-18.82v18.82h1.28v-18.82h-1.28Zm4.53,14.223c0,2.741,1.31,4.758,4.26,4.758,3.01,0,4.32-2.017,4.32-4.758V312.51c0-2.743-1.31-4.759-4.32-4.759-2.95,0-4.26,2.016-4.26,4.759v9.626Zm1.28-9.706c0-2.045.84-3.55,2.98-3.55,2.17,0,3.04,1.5,3.04,3.55v9.786c0,2.044-.87,3.55-3.04,3.55-2.14,0-2.98-1.506-2.98-3.55V312.43ZM893.408,325.955c-4.813,7.422-11.847,7.545-11.847,7.545a13.07,13.07,0,0,0,3.979-2.6,8.286,8.286,0,0,0,1.926-3.131,13.583,13.583,0,0,1-11.63,5.174c-7.25-.449-11.343-6.351-11.343-6.351a20.239,20.239,0,0,0,4.9,1.817c2.673,0.545,3.889-.052,3.889-0.052s-5.988-.377-9.4-4.708c-3-3.623-1.513-8.86-1.513-8.86a10.137,10.137,0,0,0,1.315,3.737,4.985,4.985,0,0,0,2.556,2.182s-2.854-3.7-2.916-7.217a9.381,9.381,0,0,1,3.132-6.974,10.419,10.419,0,0,0-.306,3.253,4.364,4.364,0,0,0,.973,2.181,8.31,8.31,0,0,1,1.692-7.407c2.465-3.224,7.616-3.548,7.616-3.548a14.683,14.683,0,0,0-3.511,1.853,3.491,3.491,0,0,0-1.26,2.058s2.138-3.367,9.205-3.181A14.178,14.178,0,0,1,891,306.139a12.7,12.7,0,0,0-14.223-2.146,11.857,11.857,0,0,0-7.022,11.232,11.947,11.947,0,0,1,1.206-2.354,10.864,10.864,0,0,1,1.729-1.887,2.5,2.5,0,0,0-1.008,0,7.243,7.243,0,0,1,1.836-1.851,11.007,11.007,0,0,1,2.863-1.229,3.882,3.882,0,0,0-.684-0.173c-0.482-.08-1.1-0.121-1.1-0.121a9.724,9.724,0,0,1,2.035-.571,16.886,16.886,0,0,1,2.593-.156,2.782,2.782,0,0,0-.685-0.883,6.093,6.093,0,0,0-1.3-.761c0-.01,3.927.428,7.587,4.884a24.293,24.293,0,0,1,4.728,9.186,0.659,0.659,0,0,1-.064.452,5.659,5.659,0,0,1-.8.845,2.717,2.717,0,0,1-1.1.555,2.933,2.933,0,0,1-1.17-.105c-0.84-.244-2.034-0.607-3.025-0.951-1.082-.377-1.926-0.727-1.926-0.727a8.612,8.612,0,0,1-1.926-1.35,9.218,9.218,0,0,1-1.351-1.73,5.889,5.889,0,0,1-.99-3.15s-1.331,6.1,5.185,9.31a9.242,9.242,0,0,0,6.752.208,10.751,10.751,0,0,0,3.871-2.683,8.368,8.368,0,0,0,1.8-4.135,12.409,12.409,0,0,0-.774-5.365S898.409,317.424,893.408,325.955Zm-8.5-11.708a0.871,0.871,0,0,0,.271.907,0.561,0.561,0,0,0,.362.015c0.075-.051.113-0.032,0.113,0.058a2.367,2.367,0,0,1,.066.247,1.182,1.182,0,0,1-.131.89,1.931,1.931,0,0,0,.106-2.174A1.829,1.829,0,0,0,884.1,312.9,1.551,1.551,0,0,1,884.908,314.247Zm0.016-.183a0.015,0.015,0,0,0,0-.006C884.93,314,884.932,313.972,884.924,314.064Zm0,0.006c0,0.037-.009.1-0.016,0.177,0,0,.01-0.113.016-0.185v0.008Z" transform="translate(-862 -301)"/>
</svg>
