<svg xmlns="http://www.w3.org/2000/svg" width="39.531" height="38" viewBox="0 0 39.531 38">
  <defs>
    <style>
      .cls-1 {
        fill: #de0a36;
        fill-rule: evenodd;
      }
    </style>
  </defs>
  <path id="Фигура_599" data-name="Фигура 599" class="cls-1" d="M975.208,20700.2c-5.625,8.7-13.846,8.8-13.846,8.8a15.724,15.724,0,0,0,4.65-3,10.086,10.086,0,0,0,2.252-3.7,15.912,15.912,0,0,1-13.594,6.1c-8.472-.6-13.256-7.5-13.256-7.5a22.268,22.268,0,0,0,5.723,2.2c3.124,0.6,4.545-.1,4.545-0.1s-7-.5-10.984-5.5c-3.506-4.3-1.767-10.4-1.767-10.4a12.232,12.232,0,0,0,1.536,4.4,5.335,5.335,0,0,0,2.988,2.5s-3.336-4.3-3.409-8.4a10.786,10.786,0,0,1,3.661-8.1,12.011,12.011,0,0,0-.357,3.8,4.8,4.8,0,0,0,1.136,2.5,9.8,9.8,0,0,1,1.978-8.7c2.881-3.7,8.9-4.1,8.9-4.1a18.307,18.307,0,0,0-4.1,2.2,3.907,3.907,0,0,0-1.473,2.4s2.5-4,10.758-3.7a16.662,16.662,0,0,1,11.841,5.1,14.815,14.815,0,0,0-16.623-2.5,13.857,13.857,0,0,0-8.207,13.1,12.9,12.9,0,0,1,1.41-2.7,10.127,10.127,0,0,1,2.02-2.2,2.624,2.624,0,0,0-.631-0.1,1.847,1.847,0,0,0-.548.1,9.364,9.364,0,0,1,2.147-2.2,14.322,14.322,0,0,1,3.346-1.4,1.672,1.672,0,0,0-.8-0.2c-0.562-.1-1.284-0.2-1.284-0.2a14.263,14.263,0,0,1,2.378-.6,13.1,13.1,0,0,1,3.03-.2,3.771,3.771,0,0,0-.8-1.1,5.634,5.634,0,0,0-1.515-.8c0-.1,4.59.5,8.867,5.7a27.885,27.885,0,0,1,5.526,10.7,0.676,0.676,0,0,1-.074.5,3.915,3.915,0,0,1-.936,1,2.967,2.967,0,0,1-1.284.7,3.616,3.616,0,0,1-1.368-.1c-0.982-.3-2.377-0.8-3.535-1.2-1.265-.4-2.251-0.8-2.251-0.8a12.412,12.412,0,0,1-2.252-1.6,10.76,10.76,0,0,1-1.578-2,6.926,6.926,0,0,1-1.157-3.7s-1.556,7.1,6.06,10.9a10.7,10.7,0,0,0,7.891.2,12.676,12.676,0,0,0,4.524-3.1,10.039,10.039,0,0,0,2.1-4.8,14.5,14.5,0,0,0-.905-6.3S981.052,20690.2,975.208,20700.2Zm-9.934-13.7a0.9,0.9,0,0,0,.317,1,0.652,0.652,0,0,0,.422.1q0.132-.15.132,0a3.01,3.01,0,0,1,.078.3,1.493,1.493,0,0,1-.154,1.1,2.354,2.354,0,0,0,.125-2.6,2.256,2.256,0,0,0-1.861-1.5A1.873,1.873,0,0,1,965.274,20686.5Zm0.019-.2h0C965.3,20686.2,965.3,20686.2,965.293,20686.3Zm0,0s-0.01.1-.018,0.2c0,0,.011-0.1.019-0.2h0Z" transform="translate(-938.5 -20671)"/>
</svg>
