<svg xmlns="http://www.w3.org/2000/svg" width="42" height="32" viewBox="0 0 42 32">
  <defs>
    <style>
      .cls-1 {
        fill: #666;
        fill-rule: evenodd;
      }
    </style>
  </defs>
  <path id="Фигура_1" data-name="Фигура 1" class="cls-1" d="M546.344,6290H535.7l-0.15-18.82h12.448s-5.411,6.12-8.1,8.89c-1.69,1.75-.361,3.05,1.1,4.67C543.337,6287.35,546.344,6290,546.344,6290Zm-12.3-18.8V6290h-6.3v-7.71H526.7V6290h-7.2v-18.8h7.049v6.35h1.2v-6.35h6.3ZM507.65,6290H518.3l0.15-18.82H506s5.411,6.12,8.1,8.89c1.69,1.75.384,3.07-1.1,4.67C510.7,6287.23,507.65,6290,507.65,6290ZM527,6269.55a4.565,4.565,0,0,0-2.25-1.33c-2.684-.64-3.385.82-4.349,1.33a0.8,0.8,0,0,1-.9-0.14l-1.05-1.78a6.4,6.4,0,0,1,1.2-1.04,3.373,3.373,0,0,1,1.2-.44,4.8,4.8,0,0,0-1.65-.15,12.429,12.429,0,0,1-1.2.44c-0.357-.05-0.3-0.74-0.3-0.74a8.018,8.018,0,0,1,.15-2.22,2.542,2.542,0,0,1,1.111-.2,10.4,10.4,0,0,1,4.438.94c1.419,0.7,3.073,3.41,3.6,3.41C527,6267.63,527,6269.55,527,6269.55Zm0,0.06a4.559,4.559,0,0,1,2.246-1.33c2.476-.59,3.381.82,4.343,1.33a0.8,0.8,0,0,0,.9-0.14l1.048-1.78a6.388,6.388,0,0,0-1.2-1.04,3.512,3.512,0,0,0-1.2-.45,4.919,4.919,0,0,1,1.647-.14c0.429,0.04.889,0.48,1.2,0.44,0.356-.05.3-0.74,0.3-0.74a8.018,8.018,0,0,0-.15-2.22,2.507,2.507,0,0,0-1.109-.21,10.406,10.406,0,0,0-4.432.95c-1.417.7-3.068,3.41-3.594,3.41C527,6267.69,527,6269.61,527,6269.61Zm0-3.46a4.435,4.435,0,0,0,2.1-2.82,41.139,41.139,0,0,0,.15-5.33h-4.321a41.572,41.572,0,0,0,.148,5.33,4.433,4.433,0,0,0,1.924,2.82h0Z" transform="translate(-506 -6258)"/>
</svg>
