<svg xmlns="http://www.w3.org/2000/svg" width="39" height="38.65" viewBox="0 0 39 38.65">
  <defs>
    <style>
      .cls-1 {
        fill: #666;
        fill-rule: evenodd;
      }
    </style>
  </defs>
  <path id="Лого" class="cls-1" d="M900.5,6258.14a19.321,19.321,0,1,1,0,38.64m0.058-36.01a16.746,16.746,0,1,1,0,33.49m-0.054-16.86-4.049-19.18a36.173,36.173,0,0,1,6.288-.13,23.249,23.249,0,0,1,8.507,2.69Zm0,0-5.036,19.12a24.707,24.707,0,0,0,6.93.4,28.07,28.07,0,0,0,10.208-3.45Zm0,19.38a19.321,19.321,0,1,1,0-38.64m0.058,36.12a16.746,16.746,0,1,1,0-33.49m-0.054,16.63-4.049-19.18a48.889,48.889,0,0,1,7.521-.13,13.683,13.683,0,0,1,7.151,2.93Zm0,0-5.036,19.12a42.975,42.975,0,0,0,8.261.25,17.731,17.731,0,0,0,8.754-3.54Zm-11.976,10.39a15.507,15.507,0,0,1-3.827-10.22,15.828,15.828,0,0,1,27.277-10.75m-21.566,19.27a13.015,13.015,0,0,1-3.165-8.52,13.281,13.281,0,0,1,22.721-9.19m-9.464,9.02s-1.36.79-.987,0c1.826-3.83,8.4-15.65,8.4-15.65l6.411,7.93Zm0,0-7.748,14.12a22.042,22.042,0,0,1-5.055-4.39,14.8,14.8,0,0,1-2.466-5.25Zm10.415-11.59a15.524,15.524,0,0,1,5.381,11.76,15.831,15.831,0,0,1-27.605,10.41m11.805-23.54a13.274,13.274,0,0,1,9.059,3.55,13.022,13.022,0,0,1,4.194,9.58,13.281,13.281,0,0,1-23.091,8.8,13.015,13.015,0,0,1-3.415-8.8A13.193,13.193,0,0,1,900.5,6264.44Zm0,12.96,7.17-15.77,7,7.29Zm0,0-7.871,14.36a23.62,23.62,0,0,1-4.192-3.9,35.26,35.26,0,0,1-3.7-5.85Zm-11.214-4a11.883,11.883,0,0,1,22.959,4.17,11.693,11.693,0,0,1-4.214,8.99m-16.364-12.22a9.39,9.39,0,0,1,18.147,3.29,9.246,9.246,0,0,1-3.609,7.33m-5.705-7.56,11.166,7.23-6.945,5.16Zm0,0-9.2-8.94-3.588,7.68s10.573,6.39,14.352,6.77C903.778,6283.08,900.507,6277.4,900.507,6277.4Zm8.326,8.43a11.886,11.886,0,0,1-20.309-8.26,11.632,11.632,0,0,1,3.254-8.08m15.711,14.27a9.393,9.393,0,0,1-16.419-6.13,9.211,9.211,0,0,1,2.4-6.21m7.033,5.98,11.166,7.23-6.945,5.16Zm0,0-9.2-8.94-3.588,7.68Z" transform="translate(-881 -6258.13)"/>
</svg>
