<svg xmlns="http://www.w3.org/2000/svg" width="45" height="33" viewBox="0 0 45 33">
  <defs>
    <style>
      .cls-1 {
        fill: #666;
        fill-rule: evenodd;
      }
    </style>
  </defs>
  <path id="Фигура_4" data-name="Фигура 4" class="cls-1" d="M1027.57,6263.02a22.7,22.7,0,0,1,.98,12.17c-0.09.58-1.02,3.81-1.78,4.44a2.63,2.63,0,0,1-1.03-.27,32.7,32.7,0,0,0-.27-5.34,9.727,9.727,0,0,1-2.5,5.02c-0.53,0-.93-0.09-1.6-0.09,3.62-4.84,2.46-9.01,1.29-11.84a1.715,1.715,0,0,1,1.47-.76,18.492,18.492,0,0,1,1.92,3.76c0.18,0.5.94,3.51,0.98,3.73a22.061,22.061,0,0,0-.98-10.28,1.909,1.909,0,0,1,1.52-.54h0Zm-9.28,13.29a4.691,4.691,0,0,0,3.52-4.62c0-2.38-2.36-5.61-6.96-4.81l1.16,1.57a4.287,4.287,0,0,1,2.28,7.86h0Zm-9.19-4.04h0a9.579,9.579,0,0,0,3.01,6.76c0.49,0.49.06,0.59-.09,0.71a25.6,25.6,0,0,1-3.02,1.56c-0.76,0-2.94-1.99-3.43-2.57a16.728,16.728,0,0,0,1.17,4.34c0.1,0.24.57,0.6-.54,1.27-1.11-.22-3.26-1.88-4.2-4.62,0.09-.54.18-0.94,0.36-1.89,0.22,0.5,1.96,3.77,2.41,3.82-0.41-1.21-1.65-6.15-1.52-7.54a10.711,10.711,0,0,1,1.56-1.62,12.144,12.144,0,0,0,3.39,6.24,18.283,18.283,0,0,1-.85-7.41c0.74-4.12,3.05-4.87,3.05-4.87h0S1009.1,6268.05,1009.1,6272.27Zm2.7-2.41c0.85-2.53.43-2.3,0.43-2.3l1.15,0.54h0l0.02-.01h0c-0.04,0,.25-2.1.25-2.1h0c7.26-1.98,11.22,4.03,9.17,8.55a6.278,6.278,0,0,1-3.95,3.46c-7.32,2.23-10.11-3.21-7.54-7.89h0S1011.41,6269.5,1011.8,6269.86Zm2.83,0.52h0Zm28.6,0.18-0.22,1.93a11.849,11.849,0,0,0-3.88-3.09,60.74,60.74,0,0,1,2.18,7.31h1.57c0,0.09-.05,1.35,0,1.66-0.63-.04-0.9-0.04-1.3-0.04a17.956,17.956,0,0,1-.4,5.83,0.965,0.965,0,0,0,1.16-.36c0.09-.63.54-1.12,0.71-0.63a4.855,4.855,0,0,1-.4,2.34,5.684,5.684,0,0,1-2.81-1.04c0.89-2.64.67-5.47-.36-9.24a40.808,40.808,0,0,0-3.12-7.72c-1.04-1.83,2.2-.86,6.87,3.05h0Zm0.81,0.5c2.85,2.15,3.92,9.78,1.96,9.82a4.2,4.2,0,0,1,.62,2.88c-0.03.26-.2,1.75-0.8,1.75-0.64-.06.14-2.16-0.22-3.1-0.05-.09-0.36-0.85-0.67-0.49a26.823,26.823,0,0,0-.09,3.95,1.561,1.561,0,0,1-1.47,0c0.13-1.62.18-12.88,0.22-14.18,0-.77.27-0.72,0.45-0.63h0Zm0.75,8.75a0.815,0.815,0,0,0,.59.09c0.66-.41.22-4.76-0.36-5.79-0.14-.18-0.14.13-0.14,0.31C1044.75,6275.63,1044.79,6279.31,1044.79,6279.81Zm0.67,6.99c0.13,2.49-5.02,5.86-9.4,7.42-3.3.93-7.28,1.14-8.06,0.01-0.7-1.01,1.42-3.26,4.89-4.34,3.57-1.12,5.25.13,8.11-.76A10.624,10.624,0,0,0,1045.46,6286.8Zm-14.92-22.11c1.38,5.72,1.03,7.95-.26,13.54,1.02,0.53,3.25.94,4.27,0.13,2.69-1.83.95-10.82-4.01-13.67h0Zm8.91,15.06a12.679,12.679,0,0,1-.27,3.84c-0.22.71-1.56-.45-2.09-0.76a21.433,21.433,0,0,0-6.99-3.22c-0.45-.13-1.43-0.27-1.56-0.62-0.18-.45.09-0.72,0.36-1.39a21.161,21.161,0,0,0-.09-12.95c-0.4-.8-0.98-2.77.58-2.55,5.69,2.19,9.57,12.29,10.01,17.02h0c0,0.22.05,0.4,0.05,0.63m2.4,7.19c2.8-.49,4.18-1.65,3.83-1.16-1.29,1.83-5.21,2.19-7.21,2.41-5.48.58-7.62,0.8-12.02,3.97-1.61,1.08-6.1,3.53-8.02,2.19h0c-1.02-.71.09-2.36,0.58-2.9a10.924,10.924,0,0,1,5.46-3.28C1027.41,6287.11,1039.13,6287.52,1041.85,6286.94Zm-2.27-1.03c1.82,0-.27.76-1.47,0.67-5.16-.04-7.61-0.8-13.35.31h0c-1.34.05,0.4-7.37,3.65-6.83,2.44,0.31,3.87,1.29,5.92,2.72C1035.71,6283.9,1037.71,6285.91,1039.58,6285.91Zm-13.58-.94a5.242,5.242,0,0,0,2.09,0c1.92-.22,2.81-1.25,2.94-1.83,0.27-1.25-2.94-2.1-3.51-1.65a1.1,1.1,0,0,0-.14.18,7.275,7.275,0,0,0-1.38,3.3h0Zm-1.96,2.06a2.4,2.4,0,0,1-.75.27,7.253,7.253,0,0,1-1.03-3.67,3.574,3.574,0,0,0-.98,0c-0.22,1.16.89,2.95,1.47,3.93a2.167,2.167,0,0,1-.75.36,7.907,7.907,0,0,1-1.79-2.95,5.332,5.332,0,0,1-.17-3.53,2.5,2.5,0,0,1,.62-1.07c0.71-.98,2.85-0.76,3.16-0.71a0.543,0.543,0,0,1,.45.89,7.849,7.849,0,0,0-.23,6.48h0Zm-1.6-4.42a8.5,8.5,0,0,0,.4-1.88c-0.22-.04-0.44-0.04-0.62-0.09a2.17,2.17,0,0,0-.85,1.92,4.357,4.357,0,0,1,1.07.05h0Zm-4.14-.67c0,0.17-.18.31-0.31,0.17a9.587,9.587,0,0,1-.89-1.47c-0.18-.45-0.58-0.27-1.11-0.18a5.022,5.022,0,0,0-2.63.89c-0.22.41,1.25,2.86,1.69,3.13a1.808,1.808,0,0,1,1.43-.36,1.268,1.268,0,0,1,.48.58c0.32,0.54-.71.54-0.89,0.9a6.922,6.922,0,0,0,2.9,2.45c0.31-.17,1.16-0.62.89-1.11a0.771,0.771,0,0,1-.05-0.81c0.67,0,1.29,1.43,1.47,1.97,0.05,0.31-2.13,1.47-2.31,1.38-2.41-1.34-6.77-5.27-7.53-7.68-0.48-.94.36-1.25,0.94-1.61,5.07-1.93,5.92-1.8,5.92,1.75h0Zm-11.84,2.63a0.954,0.954,0,0,1,.98.05c1.2,1.56,7.12,6.34,8.9,6.16a1.418,1.418,0,0,0,.4-0.67c0-.36-0.67-0.63-0.75-0.98-0.45-.58.57-0.94,0.97-0.49a11.835,11.835,0,0,1,1.61,1.07c0.58,0.36-1.89,3-1.25,2.23a1.569,1.569,0,0,1-.62.67,4.9,4.9,0,0,1-.67-0.13,20.407,20.407,0,0,1-3.46-1.5,26.716,26.716,0,0,1-6.07-4.9c-0.08-.09-0.17-0.17-0.26-0.26a0.726,0.726,0,0,1-.05-0.09,0.626,0.626,0,0,1,.27-1.16h0Zm32.99-4.82-29.46-12.73a1.955,1.955,0,0,1,.11,2.52,1.422,1.422,0,0,0,.54-0.36,1.732,1.732,0,0,1-.81,1.28,2.062,2.062,0,0,0,.69-0.2,2.128,2.128,0,0,1-.75.74c1.89,0.21,2.82-1,1.7-2.63a3.173,3.173,0,0,1,.62,1.01,2.925,2.925,0,0,0-1.47-2.3,3.581,3.581,0,0,1,1.91,1.92,2.672,2.672,0,0,0-.22-0.78,4.422,4.422,0,0,1,1.01,1.8,2.189,2.189,0,0,0-.04-0.76,4.871,4.871,0,0,1,.53,1.29,2.881,2.881,0,0,0-2.07-3.73,3.013,3.013,0,0,1,1.06.33c-1.07-.91-1.88-0.94-2.42-0.72a1.837,1.837,0,0,1,1.85-.07,1.675,1.675,0,0,0-.49-0.36,2.349,2.349,0,0,1,1.38.48,1.861,1.861,0,0,0-.4-0.48,3.027,3.027,0,0,1,.9.48c-0.44-1.37-1.81-1.94-2.85-1.01a1.858,1.858,0,0,1,.67-0.53,1.992,1.992,0,0,0-.93.36,3.946,3.946,0,0,0-.5-1.83,4.066,4.066,0,0,1,.16,1.17c-0.18-1.91-1.58-3.04-2.82-2.51a3.569,3.569,0,0,1,.99.66,1.463,1.463,0,0,0-.62-0.09,3.29,3.29,0,0,1,1.36,1.22,1.666,1.666,0,0,0-.6-0.29,3.537,3.537,0,0,1,1.35,2.18,3.624,3.624,0,0,0-2.3-2.23,4.235,4.235,0,0,1,1.02.96c-1.6-1.66-3.51-1.33-4.01.43a2.967,2.967,0,0,1,1.24-.36,1.676,1.676,0,0,0-.53.53,2.888,2.888,0,0,1,1.94-.2,1.752,1.752,0,0,0-.67.33,3.088,3.088,0,0,1,2.72.78,2.247,2.247,0,0,0-2.8-.22,2.416,2.416,0,0,1,1.16.03c-1.96-.18-2.17,1.78-0.69,3.88a3.733,3.733,0,0,1,.01-1.42,3.958,3.958,0,0,0,.34.96,2.517,2.517,0,0,1,.34-1.86,2.7,2.7,0,0,0,.13.89C1007.8,6266.48,1009.99,6267.02,1009.99,6267.02Z" transform="translate(-1002 -6262)"/>
</svg>
