<svg xmlns="http://www.w3.org/2000/svg" width="46" height="28" viewBox="0 0 46 28">
  <defs>
    <style>
      .cls-1 {
        fill: #666;
        fill-rule: evenodd;
      }
    </style>
  </defs>
  <path id="Tents_and_Awnings_in_UAE" data-name="Tents and Awnings in UAE" class="cls-1" d="M1129.71,6274.07l2.71,2.61-2.71,2.61-2.71-2.61Zm40.59,0,2.7,2.61-2.7,2.61-2.71-2.61ZM1150,6263l4.07,4.24-4.07,4.23-4.06-4.23Zm-20.29,16.93a10.2,10.2,0,0,0,3.38,2.61,10.835,10.835,0,0,0,4.06.65l-7.44,7.81v-11.07Zm20.29-8.46-11.5,11.07s4.59,0.44,7.44-1.96c2.55-2.14,4.06-7.16,4.06-7.16s1.05,4.6,4.06,7.16c2.72,2.31,7.44,2.61,7.44,2.61Zm12.18,11.72a29.133,29.133,0,0,0,4.73-1.3,13.653,13.653,0,0,0,3.39-1.96V6291Z" transform="translate(-1127 -6263)"/>
</svg>
