<svg xmlns="http://www.w3.org/2000/svg" width="24" height="24" viewBox="0 0 24 24">
  <defs>
    <style>
      .cls-1 {
        fill-rule: evenodd;
        opacity: 0.3;
      }
    </style>
  </defs>
  <path id="Forma_1" data-name="Forma 1" class="cls-1" d="M1322,2063a12,12,0,1,0,12,12A12.01,12.01,0,0,0,1322,2063Zm8.21,5.61-3.49,3.49a5.454,5.454,0,0,0-1.66-1.72l3.47-3.47A10.007,10.007,0,0,1,1330.21,2068.61Zm-8.21,10.34a3.95,3.95,0,1,1,3.95-3.95A3.952,3.952,0,0,1,1322,2078.95Zm5.19-12.96-3.67,3.67a5.811,5.811,0,0,0-1.52-.21,5.477,5.477,0,0,0-1.62.24l-3.66-3.66A10.36,10.36,0,0,1,1327.19,2065.99Zm-11.8.97,3.47,3.47a5.751,5.751,0,0,0-1.64,1.76l-3.48-3.5A10.4,10.4,0,0,1,1315.39,2066.96Zm-2.54,3.1,3.74,3.74a5.964,5.964,0,0,0-.14,1.2,5.3,5.3,0,0,0,.22,1.51l-3.68,3.68A10.385,10.385,0,0,1,1312.85,2070.06Zm1.06,11.47,3.46-3.47a5.918,5.918,0,0,0,1.72,1.66l-3.48,3.49A10.392,10.392,0,0,1,1313.91,2081.53Zm3.06,2.58,3.7-3.7a0.034,0.034,0,0,1,.03-0.02,5.661,5.661,0,0,0,1.31.16,5.881,5.881,0,0,0,1.2-.14h0l3.74,3.74A10.439,10.439,0,0,1,1316.97,2084.11Zm11.34-.85-3.5-3.5a5.591,5.591,0,0,0,1.75-1.64l3.48,3.48A10.443,10.443,0,0,1,1328.31,2083.26Zm2.66-2.98-3.66-3.66a5.429,5.429,0,0,0,.24-1.62,5.661,5.661,0,0,0-.16-1.31l3.72-3.72a10.324,10.324,0,0,1,1.31,5.03A10.628,10.628,0,0,1,1330.97,2080.28Z" transform="translate(-1310 -2063)"/>
</svg>
