<svg xmlns="http://www.w3.org/2000/svg" width="21" height="25.03" viewBox="0 0 21 25.03">
  <defs>
    <style>
      .cls-1 {
        fill-rule: evenodd;
        opacity: 0.33;
      }
    </style>
  </defs>
  <path id="Forma_1" data-name="Forma 1" class="cls-1" d="M1190.99,2067.16a0.685,0.685,0,0,0-.58-0.66,22.256,22.256,0,0,1-4.62-1.13,33.591,33.591,0,0,1-4.95-2.3,0.624,0.624,0,0,0-.67,0,33.124,33.124,0,0,1-4.95,2.3,22.077,22.077,0,0,1-4.6,1.13,0.733,0.733,0,0,0-.61.66q-0.225,9.435,4.17,15.44a18.521,18.521,0,0,0,5.99,5.3,0.658,0.658,0,0,0,.69,0,18.876,18.876,0,0,0,5.96-5.3Q1191.215,2076.6,1190.99,2067.16Zm-5.28,14.67a17.512,17.512,0,0,1-5.21,4.72,17.391,17.391,0,0,1-5.21-4.72q-3.99-5.49-3.9-14.07a23.212,23.212,0,0,0,4.36-1.15,36.775,36.775,0,0,0,4.75-2.17,36.693,36.693,0,0,0,4.74,2.17,23.309,23.309,0,0,0,4.37,1.15Q1189.685,2076.4,1185.71,2081.83Z" transform="translate(-1170 -2062.97)"/>
</svg>
