<svg xmlns="http://www.w3.org/2000/svg" width="48" height="48" viewBox="0 0 48 48">
  <defs>
    <style>
      .cls-1 {
        fill: #de0a36;
        fill-rule: evenodd;
      }
    </style>
  </defs>
  <path id="Фигура_578" data-name="Фигура 578" class="cls-1" d="M930.594,1186.85c-6.833,10.97-16.82,11.15-16.82,11.15a18.365,18.365,0,0,0,5.649-3.84,12.376,12.376,0,0,0,2.736-4.62,19.083,19.083,0,0,1-16.514,7.64c-10.293-.66-16.105-9.38-16.105-9.38a27.819,27.819,0,0,0,6.953,2.68c3.795,0.81,5.522-.07,5.522-0.07s-8.5-.56-13.345-6.95c-4.259-5.35-2.147-13.09-2.147-13.09a15.434,15.434,0,0,0,1.866,5.52,7.128,7.128,0,0,0,3.63,3.22s-4.052-5.46-4.141-10.66a14.047,14.047,0,0,1,4.448-10.3,16.037,16.037,0,0,0-.435,4.81,6.558,6.558,0,0,0,1.381,3.22,12.678,12.678,0,0,1,2.4-10.94c3.5-4.76,10.813-5.24,10.813-5.24a20.816,20.816,0,0,0-4.985,2.73,5.239,5.239,0,0,0-1.789,3.05s3.036-4.98,13.069-4.7a19.887,19.887,0,0,1,14.386,6.51A17.815,17.815,0,0,0,897,1171.01a18.007,18.007,0,0,1,1.713-3.48,15.848,15.848,0,0,1,2.454-2.78,3.719,3.719,0,0,0-.767-0.08,4.369,4.369,0,0,0-.665.08,10.6,10.6,0,0,1,2.608-2.74,15.323,15.323,0,0,1,4.064-1.81,5.351,5.351,0,0,0-.971-0.26c-0.683-.12-1.559-0.18-1.559-0.18a13.237,13.237,0,0,1,2.888-.84,23.108,23.108,0,0,1,3.681-.23,4.047,4.047,0,0,0-.971-1.3,8.523,8.523,0,0,0-1.841-1.13c0-.01,5.576.63,10.773,7.21a36.518,36.518,0,0,1,6.713,13.57,1.016,1.016,0,0,1-.09.67,8.6,8.6,0,0,1-1.137,1.25,3.741,3.741,0,0,1-1.56.81,3.933,3.933,0,0,1-1.661-.15c-1.193-.36-2.889-0.89-4.3-1.4-1.537-.56-2.735-1.08-2.735-1.08a12.344,12.344,0,0,1-2.735-1.99,13.529,13.529,0,0,1-1.918-2.56,8.938,8.938,0,0,1-1.406-4.65,12.9,12.9,0,0,0,7.363,13.75,12.652,12.652,0,0,0,9.586.31,15.356,15.356,0,0,0,5.5-3.96,12.612,12.612,0,0,0,2.556-6.11,18.972,18.972,0,0,0-1.1-7.92S937.7,1174.26,930.594,1186.85Zm-12.068-17.28a1.3,1.3,0,0,0,.385,1.33,0.755,0.755,0,0,0,.513.03c0.108-.08.161-0.05,0.161,0.08a3.228,3.228,0,0,1,.094.37,1.8,1.8,0,0,1-.187,1.31c0.862-.81.557-2.26,0.152-3.21-0.388-.91-1.159-1.97-2.261-1.9A2.315,2.315,0,0,1,918.526,1169.57Zm0.023-.28a0.016,0.016,0,0,0,0-.01C918.557,1169.2,918.561,1169.16,918.549,1169.29Zm0,0.01c0,0.06-.012.14-0.022,0.27l0.023-.28A0.034,0.034,0,0,1,918.548,1169.3Z" transform="translate(-886 -1150)"/>
</svg>
