<svg xmlns="http://www.w3.org/2000/svg" width="43" height="19" viewBox="0 0 43 19">
  <defs>
    <style>
      .cls-1 {
        fill: #de0a36;
        fill-rule: evenodd;
      }
    </style>
  </defs>
  <path id="Forma_1" data-name="Forma 1" class="cls-1" d="M1528.75,3318.86l-9.56-8.66a0.793,0.793,0,0,0-.87-0.13,0.737,0.737,0,0,0-.47.72v5.54H1486.8a0.786,0.786,0,0,0-.8.8v4.75a0.776,0.776,0,0,0,.23.57,0.81,0.81,0,0,0,.57.22h31.05v5.54a0.755,0.755,0,0,0,.47.72,0.78,0.78,0,0,0,.87-0.15l9.56-8.76a0.816,0.816,0,0,0,.25-0.59A0.789,0.789,0,0,0,1528.75,3318.86Z" transform="translate(-1486 -3310)"/>
</svg>
