<svg xmlns="http://www.w3.org/2000/svg" width="9.875" height="9.656" viewBox="0 0 9.875 9.656">
  <defs>
    <style>
      .cls-1 {
        fill: #fff;
        fill-rule: evenodd;
      }
    </style>
  </defs>
  <path id="ic_call" class="cls-1" d="M242.494,120.057a0.464,0.464,0,0,1-.147.41l-1.388,1.35a0.779,0.779,0,0,1-.245.174,1.063,1.063,0,0,1-.3.092c-0.007,0-.028,0-0.062,0s-0.08.005-.136,0.005a4.662,4.662,0,0,1-1.727-.394,9.168,9.168,0,0,1-1.457-.782,10.788,10.788,0,0,1-1.732-1.432,11.206,11.206,0,0,1-1.211-1.351,9.572,9.572,0,0,1-.773-1.191,6.324,6.324,0,0,1-.438-0.992,5.019,5.019,0,0,1-.2-0.768,2.462,2.462,0,0,1-.042-0.506c0.007-.122.01-0.191,0.01-0.2a0.973,0.973,0,0,1,.094-0.292,0.773,0.773,0,0,1,.177-0.24l1.389-1.361a0.466,0.466,0,0,1,.334-0.143,0.391,0.391,0,0,1,.24.077,0.7,0.7,0,0,1,.177.189l1.117,2.076a0.493,0.493,0,0,1,.053.358,0.634,0.634,0,0,1-.178.328l-0.511.5a0.179,0.179,0,0,0-.037.067,0.258,0.258,0,0,0-.016.076,1.846,1.846,0,0,0,.188.491,4.672,4.672,0,0,0,.386.6,6.749,6.749,0,0,0,.742.813,6.888,6.888,0,0,0,.835.731,4.849,4.849,0,0,0,.61.384,1.688,1.688,0,0,0,.376.148l0.131,0.025a0.25,0.25,0,0,0,.067-0.015,0.164,0.164,0,0,0,.068-0.036l0.595-.593a0.65,0.65,0,0,1,.439-0.164,0.567,0.567,0,0,1,.282.061h0.01l2.015,1.167A0.517,0.517,0,0,1,242.494,120.057Z" transform="translate(-232.625 -112.438)"/>
</svg>
