<?xml version="1.0" encoding="utf-8"?>
<!-- Generator: Adobe Illustrator 21.0.0, SVG Export Plug-In . SVG Version: 6.00 Build 0)  -->
<svg version="1.1" id="Слой_1" xmlns="http://www.w3.org/2000/svg" xmlns:xlink="http://www.w3.org/1999/xlink" x="0px" y="0px"
	 viewBox="0 0 10 10" style="enable-background:new 0 0 10 10;" xml:space="preserve">
<style type="text/css">
	.st0{fill:#FFFFFF;}
</style>
<path id="ic_close_gray" class="st0" d="M5.7,5l4.2-4.2c0.2-0.2,0.2-0.5,0-0.7C9.7,0,9.4,0,9.2,0.1l0,0L5,4.3L0.8,0.1
	C0.6,0,0.3,0,0.1,0.1C0,0.3,0,0.6,0.1,0.8L4.3,5L0.1,9.2C0,9.4,0,9.7,0.1,9.9C0.2,9.9,0.4,10,0.5,10c0.1,0,0.2-0.1,0.3-0.1L5,5.7
	l4.2,4.2c0.2,0.2,0.5,0.2,0.7,0c0.2-0.2,0.2-0.5,0-0.7L5.7,5z"/>
</svg>