<svg xmlns="http://www.w3.org/2000/svg" width="29.875" height="30" viewBox="0 0 29.875 30">
  <defs>
    <style>
      .cls-1 {
        fill: #5067ae;
        fill-rule: evenodd;
      }
    </style>
  </defs>
  <path id="ic_fb_h" class="cls-1" d="M140.937,503h0a14.937,14.937,0,0,1,14.937,14.937v0.126A14.938,14.938,0,0,1,140.938,533h0A14.937,14.937,0,0,1,126,518.063v-0.126A14.936,14.936,0,0,1,140.937,503Zm2.789,9.012-1.677,0a2.84,2.84,0,0,0-3.1,2.954v1.362h-1.687a0.255,0.255,0,0,0-.264.244v1.975a0.254,0.254,0,0,0,.264.244h1.687v4.98a0.255,0.255,0,0,0,.264.245h2.2a0.255,0.255,0,0,0,.264-0.245v-4.98h1.972a0.254,0.254,0,0,0,.264-0.244V516.57a0.237,0.237,0,0,0-.077-0.172,0.276,0.276,0,0,0-.187-0.072h-1.973v-1.155c0-.555.143-0.837,0.922-0.837h1.13a0.255,0.255,0,0,0,.264-0.245v-1.832A0.255,0.255,0,0,0,143.726,512.012Z" transform="translate(-126 -503)"/>
</svg>
