<svg xmlns="http://www.w3.org/2000/svg" width="29.907" height="30" viewBox="0 0 29.907 30">
  <defs>
    <style>
      .cls-1 {
        fill: #cbcbcb;
        fill-rule: evenodd;
      }
    </style>
  </defs>
  <path id="ic_inst_link" class="cls-1" d="M180.856,468h0.006a14.95,14.95,0,0,1,14.95,14.95v0.1A14.95,14.95,0,0,1,180.862,498h-0.006a14.95,14.95,0,0,1-14.95-14.95v-0.1A14.95,14.95,0,0,1,180.856,468Zm2.769,8h-5.25A4.375,4.375,0,0,0,174,480.375v5.25A4.374,4.374,0,0,0,178.375,490h5.25A4.374,4.374,0,0,0,188,485.625v-5.25A4.375,4.375,0,0,0,183.625,476Zm3.062,9.625a3.065,3.065,0,0,1-3.062,3.062h-5.25a3.066,3.066,0,0,1-3.063-3.062v-5.25a3.066,3.066,0,0,1,3.063-3.063h5.25a3.066,3.066,0,0,1,3.062,3.063v5.25ZM181,479.5a3.5,3.5,0,1,0,3.5,3.5A3.5,3.5,0,0,0,181,479.5Zm0,5.687A2.188,2.188,0,1,1,183.188,483,2.191,2.191,0,0,1,181,485.187Zm3.762-6.416a0.466,0.466,0,1,1-.466.466A0.466,0.466,0,0,1,184.762,478.771Z" transform="translate(-165.906 -468)"/>
</svg>
