<svg xmlns="http://www.w3.org/2000/svg" width="316" height="64" viewBox="0 0 316 64">
  <defs>
    <style>
      .cls-1 {
        fill: #fff;
        stroke: #000;
        stroke-linecap: round;
        stroke-linejoin: round;
        stroke-width: 0;
        fill-rule: evenodd;
      }
    </style>
  </defs>
  <path id="ic_logo_white" class="cls-1" d="M211.849,130.613h-8.711v37.063h9.078c5.773,0,8.764-3.071,8.764-8.789v-3.018c0-3.918-1.207-6.724-4.3-7.942,2.571-1.218,3.725-3.653,3.725-7.466v-1.323C220.4,133.419,217.831,130.613,211.849,130.613ZM211.482,151c2.623,0,3.725,1.059,3.725,4.5v3.23c0,2.753-1.049,3.654-2.991,3.654H208.91V151h2.572Zm0.21-15.09c2.046,0,2.938,1.165,2.938,3.812v2.065c0,2.965-1.312,3.918-3.463,3.918H208.91v-9.8h2.782Zm14.848,31.768h5.772V130.613H226.54v37.063Zm12.068,0h9.13c5.773,0,8.606-3.229,8.606-9.16V139.773c0-5.93-2.833-9.16-8.606-9.16h-9.13v37.063Zm9.026-31.768c1.836,0,2.938.953,2.938,3.6v19.273c0,2.648-1.1,3.6-2.938,3.6H244.38V135.908h3.254Zm14.218-5.295v28.221c0,5.93,2.939,9.319,8.606,9.319s8.606-3.389,8.606-9.319V130.613h-5.457v28.592c0,2.647-1.155,3.6-2.991,3.6s-2.992-.953-2.992-3.6V130.613h-5.772Zm22.51,8.9c0,10.59,11.282,12.019,11.282,19.644,0,2.647-1.154,3.6-2.991,3.6s-2.991-.953-2.991-3.6V156.5h-5.457v2.277c0,5.93,2.938,9.319,8.606,9.319s8.606-3.389,8.606-9.319c0-10.589-11.283-12.019-11.283-19.643,0-2.648,1.05-3.654,2.887-3.654s2.886,1.006,2.886,3.654v1.535h5.457v-1.165c0-5.93-2.886-9.318-8.5-9.318S284.362,133.578,284.362,139.508Zm32.69-8.9v37.063h8.081c5.667,0,8.133-3.759,8.133-9.212V139.826c0-5.454-2.466-9.213-8.133-9.213h-8.081Zm2.414,34.84V132.837h5.614c4.041,0,5.773,2.806,5.773,6.883v18.849c0,4.077-1.68,6.884-5.773,6.884h-5.614Zm19.886-34.84v37.063h2.414V130.613h-2.414Zm16.476-.317c-5.615,0-7.924,4.024-7.924,9.371v18.955c0,5.348,2.309,9.372,7.924,9.372s7.924-4.024,7.924-9.372v-10.06h-7.189v2.224h4.88v8c0,3.971-1.522,6.936-5.563,6.936s-5.562-2.965-5.562-6.936V139.508c0-3.971,1.522-6.989,5.562-6.989s5.563,3.018,5.563,6.989v2.912h2.309v-2.753C363.752,134.32,361.443,130.3,355.828,130.3Zm14.061,0.317v37.063H372.3V130.613h-2.414Zm17.474,37.063V132.837h7.451v-2.224H377.445v2.224h7.5v34.839h2.414Zm25.658-8.206,1.837,8.206h2.414l-8.186-37.116H405.57l-8.029,37.116h2.2l1.837-8.206h11.439Zm-5.772-26.1,5.4,23.986h-10.7ZM437,167.676v-2.223H425.456v-34.84h-2.414v37.063H437Zm-256.794-1.534C171.134,180.759,157.874,181,157.874,181a24.447,24.447,0,0,0,7.5-5.112,16.515,16.515,0,0,0,3.631-6.168,25.3,25.3,0,0,1-21.925,10.189C133.416,179.026,125.7,167.4,125.7,167.4a37.149,37.149,0,0,0,9.231,3.578c5.039,1.074,7.331-.1,7.331-0.1s-11.287-.741-17.716-9.27c-5.655-7.134-2.851-17.448-2.851-17.448a20.617,20.617,0,0,0,2.477,7.361,9.479,9.479,0,0,0,4.82,4.294s-5.381-7.284-5.5-14.211a18.758,18.758,0,0,1,5.906-13.734,21.4,21.4,0,0,0-.577,6.407,8.76,8.76,0,0,0,1.833,4.294,16.964,16.964,0,0,1,3.19-14.586C138.492,117.637,148.2,117,148.2,117a27.266,27.266,0,0,0-6.618,3.646,6.983,6.983,0,0,0-2.376,4.056s4.032-6.631,17.352-6.264a26.352,26.352,0,0,1,19.1,8.683,23.251,23.251,0,0,0-26.812-4.225,23.616,23.616,0,0,0-13.236,22.117,23.873,23.873,0,0,1,2.274-4.635,21.011,21.011,0,0,1,3.258-3.715,5.469,5.469,0,0,0-1.018-.1,5.355,5.355,0,0,0-.883.1,14.013,14.013,0,0,1,3.462-3.646,20.324,20.324,0,0,1,5.4-2.42,7.25,7.25,0,0,0-1.29-.34c-0.907-.157-2.07-0.239-2.07-0.239a17.693,17.693,0,0,1,3.835-1.124,30.22,30.22,0,0,1,4.887-.307,5.431,5.431,0,0,0-1.29-1.738,11.35,11.35,0,0,0-2.443-1.5c0-.02,7.4.843,14.3,9.617a48.782,48.782,0,0,1,8.912,18.089,1.353,1.353,0,0,1-.119.891,11.2,11.2,0,0,1-1.51,1.665,5.019,5.019,0,0,1-2.07,1.091,5.306,5.306,0,0,1-2.206-.2c-1.585-.482-3.835-1.2-5.7-1.874-2.04-.742-3.632-1.431-3.632-1.431a16.294,16.294,0,0,1-3.631-2.658,18.037,18.037,0,0,1-2.546-3.408,11.988,11.988,0,0,1-1.866-6.2s-2.509,12.013,9.774,18.335a16.741,16.741,0,0,0,12.728.409,20.337,20.337,0,0,0,7.3-5.283,16.8,16.8,0,0,0,3.393-8.144,25.423,25.423,0,0,0-1.459-10.565S189.633,149.342,180.206,166.142Zm-16.022-23.054c-0.068.551-.077,1.5,0.511,1.785a1.014,1.014,0,0,0,.681.031q0.213-.151.213,0.113a4.532,4.532,0,0,1,.125.488,2.414,2.414,0,0,1-.248,1.752c1.144-1.08.74-3.017,0.2-4.283-0.516-1.216-1.538-2.625-3-2.528A3.076,3.076,0,0,1,164.184,143.088Zm0.03-.362a0.045,0.045,0,0,0,0-.011C164.225,142.6,164.23,142.548,164.214,142.726Zm0,0.012c-0.006.075-.016,0.188-0.029,0.35,0,0,.018-0.222.03-0.364A0.066,0.066,0,0,1,164.213,142.738Z" transform="translate(-121 -117)"/>
</svg>
