<svg xmlns="http://www.w3.org/2000/svg" width="14.25" height="7.84" viewBox="0 0 14.25 7.84">
  <defs>
    <style>
      .cls-1 {
        fill: #fff;
        fill-rule: evenodd;
      }
    </style>
  </defs>
  <path id="ic_vk" class="cls-1" d="M491.82,5649.53a0.447,0.447,0,0,0-.048-0.09,7.313,7.313,0,0,0-1.415-1.59l-0.015-.01-0.007-.01-0.007-.01H490.32a8.072,8.072,0,0,1-.6-0.59,0.535,0.535,0,0,1-.1-0.58,5.376,5.376,0,0,1,.666-0.94c0.2-.25.363-0.46,0.482-0.61,0.854-1.1,1.224-1.8,1.11-2.11l-0.044-.07a0.49,0.49,0,0,0-.229-0.12,1.194,1.194,0,0,0-.474-0.02l-2.133.02a0.244,0.244,0,0,0-.148,0,0.8,0.8,0,0,0-.1.02l-0.037.02-0.029.02a0.4,0.4,0,0,0-.082.08,0.367,0.367,0,0,0-.074.12,11.714,11.714,0,0,1-.792,1.62c-0.183.29-.351,0.55-0.5,0.77a3.353,3.353,0,0,1-.385.48,2.826,2.826,0,0,1-.281.25,0.288,0.288,0,0,1-.193.08l-0.126-.03a0.434,0.434,0,0,1-.166-0.18,0.764,0.764,0,0,1-.086-0.28c-0.014-.11-0.023-0.21-0.025-0.29s0-.19,0-0.34,0.008-.25.008-0.3c0-.19,0-0.38.011-0.6s0.013-.38.018-0.5,0.008-.26.008-0.4a1.485,1.485,0,0,0-.026-0.32,0.974,0.974,0,0,0-.078-0.23,0.372,0.372,0,0,0-.152-0.18,0.774,0.774,0,0,0-.248-0.09,5.21,5.21,0,0,0-1-.1,4.8,4.8,0,0,0-1.77.18,0.953,0.953,0,0,0-.281.21c-0.089.11-.1,0.16-0.037,0.17a0.957,0.957,0,0,1,.629.31l0.045,0.09a1.286,1.286,0,0,1,.1.33,3.2,3.2,0,0,1,.067.52,5.372,5.372,0,0,1,0,.9c-0.025.25-.048,0.44-0.07,0.58a1.219,1.219,0,0,1-.1.34c-0.045.08-.074,0.14-0.089,0.16a0.06,0.06,0,0,1-.037.03,0.462,0.462,0,0,1-.2.04,0.546,0.546,0,0,1-.252-0.1,1.783,1.783,0,0,1-.307-0.28,3.875,3.875,0,0,1-.359-0.49,7.909,7.909,0,0,1-.415-0.75l-0.119-.2c-0.074-.14-0.175-0.33-0.3-0.59s-0.242-.5-0.341-0.74a0.464,0.464,0,0,0-.178-0.23l-0.037-.02a0.4,0.4,0,0,0-.118-0.07,0.947,0.947,0,0,0-.171-0.04l-2.029.01a0.529,0.529,0,0,0-.422.14l-0.03.04a0.255,0.255,0,0,0-.022.12,0.564,0.564,0,0,0,.045.19c0.3,0.67.618,1.33,0.966,1.95s0.651,1.14.907,1.52,0.519,0.74.785,1.08,0.443,0.56.53,0.65,0.154,0.17.2,0.22l0.186,0.17a4.709,4.709,0,0,0,.522.42c0.229,0.16.484,0.31,0.763,0.47a4.558,4.558,0,0,0,.974.38,3.386,3.386,0,0,0,1.081.12h0.852a0.635,0.635,0,0,0,.392-0.16l0.03-.04a0.371,0.371,0,0,0,.055-0.13,0.7,0.7,0,0,0,.026-0.2,2.245,2.245,0,0,1,.048-0.55,1.519,1.519,0,0,1,.126-0.38,1.072,1.072,0,0,1,.159-0.21,0.849,0.849,0,0,1,.126-0.1,0.29,0.29,0,0,0,.059-0.03,0.483,0.483,0,0,1,.419.11,3.012,3.012,0,0,1,.452.42c0.14,0.17.31,0.35,0.507,0.56a3.807,3.807,0,0,0,.518.46l0.148,0.08a1.819,1.819,0,0,0,.386.16,0.882,0.882,0,0,0,.414.04l1.9-.03a0.876,0.876,0,0,0,.437-0.09,0.368,0.368,0,0,0,.185-0.2,0.52,0.52,0,0,0,0-.24A0.78,0.78,0,0,0,491.82,5649.53Z" transform="translate(-477.656 -5642.44)"/>
</svg>
