<svg xmlns="http://www.w3.org/2000/svg" width="29.875" height="30" viewBox="0 0 29.875 30">
  <defs>
    <style>
      .cls-1 {
        fill: #cbcbcb;
        fill-rule: evenodd;
      }
    </style>
  </defs>
  <path id="ic_vk_link" class="cls-1" d="M220.781,468h0a14.937,14.937,0,0,1,14.937,14.937v0.126A14.938,14.938,0,0,1,220.782,498h0a14.937,14.937,0,0,1-14.937-14.937v-0.126A14.936,14.936,0,0,1,220.781,468Zm7.039,18.527a0.791,0.791,0,0,0-.048-0.09,7.2,7.2,0,0,0-1.415-1.586l-0.015-.015-0.007-.007-0.007-.008H226.32c-0.316-.291-0.516-0.488-0.6-0.588a0.54,0.54,0,0,1-.1-0.582,5.415,5.415,0,0,1,.666-0.94c0.2-.254.363-0.457,0.482-0.61q1.281-1.651,1.11-2.111l-0.044-.071a0.427,0.427,0,0,0-.229-0.119,1.2,1.2,0,0,0-.474-0.018L225,479.8a0.3,0.3,0,0,0-.148,0l-0.1.022-0.037.018-0.029.021a0.324,0.324,0,0,0-.082.076,0.481,0.481,0,0,0-.074.126,11.581,11.581,0,0,1-.792,1.614q-0.274.445-.5,0.772a3.691,3.691,0,0,1-.385.481,2.659,2.659,0,0,1-.281.248,0.281,0.281,0,0,1-.193.079l-0.126-.029a0.484,0.484,0,0,1-.166-0.176,0.777,0.777,0,0,1-.086-0.28c-0.014-.113-0.023-0.209-0.025-0.29s0-.2,0-0.345,0.008-.25.008-0.3c0-.183,0-0.38.011-0.592s0.013-.383.018-0.507,0.008-.256.008-0.4a1.634,1.634,0,0,0-.026-0.327,1.1,1.1,0,0,0-.078-0.23,0.386,0.386,0,0,0-.152-0.172,0.879,0.879,0,0,0-.248-0.1,5.121,5.121,0,0,0-1-.093,5.033,5.033,0,0,0-1.77.172,0.993,0.993,0,0,0-.281.216c-0.089.106-.1,0.162-0.037,0.172a0.914,0.914,0,0,1,.629.309l0.045,0.086a1.359,1.359,0,0,1,.1.33,3.209,3.209,0,0,1,.067.524,5.348,5.348,0,0,1,0,.9q-0.037.372-.07,0.581a1.166,1.166,0,0,1-.1.337,1.375,1.375,0,0,1-.089.158,0.119,0.119,0,0,1-.037.036,0.566,0.566,0,0,1-.2.036,0.478,0.478,0,0,1-.252-0.1,1.715,1.715,0,0,1-.307-0.277,3.64,3.64,0,0,1-.359-0.492,8.326,8.326,0,0,1-.415-0.746l-0.119-.208c-0.074-.134-0.175-0.33-0.3-0.586s-0.242-.5-0.341-0.743a0.475,0.475,0,0,0-.178-0.229l-0.037-.022a0.481,0.481,0,0,0-.118-0.061,0.815,0.815,0,0,0-.171-0.047l-2.029.015a0.525,0.525,0,0,0-.422.136l-0.03.043a0.238,0.238,0,0,0-.022.115,0.558,0.558,0,0,0,.045.195q0.444,1.011.966,1.952t0.907,1.514q0.386,0.575.785,1.084c0.267,0.341.443,0.558,0.53,0.654s0.154,0.168.2,0.215l0.186,0.172a4.251,4.251,0,0,0,.522.413,8.776,8.776,0,0,0,.763.474,4.173,4.173,0,0,0,.974.38,3.442,3.442,0,0,0,1.081.119h0.852a0.6,0.6,0,0,0,.392-0.158l0.03-.036a0.5,0.5,0,0,0,.055-0.133,0.717,0.717,0,0,0,.026-0.2,2.291,2.291,0,0,1,.048-0.556,1.447,1.447,0,0,1,.126-0.374,0.926,0.926,0,0,1,.159-0.211,0.632,0.632,0,0,1,.126-0.1,0.622,0.622,0,0,1,.059-0.025,0.478,0.478,0,0,1,.419.111,2.468,2.468,0,0,1,.452.416c0.14,0.165.31,0.35,0.507,0.557a3.535,3.535,0,0,0,.518.459l0.148,0.086a1.88,1.88,0,0,0,.386.158,0.85,0.85,0,0,0,.414.036l1.9-.029a0.888,0.888,0,0,0,.437-0.089,0.36,0.36,0,0,0,.185-0.2,0.532,0.532,0,0,0,0-.243A0.858,0.858,0,0,0,227.82,486.527Z" transform="translate(-205.844 -468)"/>
</svg>
