<svg xmlns="http://www.w3.org/2000/svg" width="29.875" height="30" viewBox="0 0 29.875 30">
  <defs>
    <style>
      .cls-1 {
        fill: #cbcbcb;
        fill-rule: evenodd;
      }
    </style>
  </defs>
  <path id="ic_youtube_link" class="cls-1" d="M261.062,468h0A14.937,14.937,0,0,1,276,482.937v0.126A14.938,14.938,0,0,1,261.063,498h0a14.937,14.937,0,0,1-14.937-14.937v-0.126A14.936,14.936,0,0,1,261.062,468Zm6.167,11.6a1.751,1.751,0,0,0-1.462-1.412,64.831,64.831,0,0,0-10.126,0,1.752,1.752,0,0,0-1.461,1.412,24.5,24.5,0,0,0,0,6.792,1.752,1.752,0,0,0,1.462,1.412,64.506,64.506,0,0,0,10.126,0,1.751,1.751,0,0,0,1.461-1.412A24.6,24.6,0,0,0,267.229,479.6Zm-8.271,5.626v-4.751c1.432,0.795,2.856,1.584,4.3,2.383Z" transform="translate(-246.125 -468)"/>
</svg>
