<svg xmlns="http://www.w3.org/2000/svg" width="9.563" height="17.68" viewBox="0 0 9.563 17.68">
  <defs>
    <style>
      .cls-1 {
        fill-rule: evenodd;
        opacity: 0.44;
      }
    </style>
  </defs>
  <path id="Forma_1" data-name="Forma 1" class="cls-1" d="M707.232,1278.99v-5.3c0-3.07-2.011-5.3-4.783-5.3s-4.782,2.23-4.782,5.3v7.95a0.9,0.9,0,0,0,1.794,0v-7.94c0-1.71.9-3.55,2.988-3.55s2.99,1.84,2.99,3.55v7.06a0.76,0.76,0,0,0,.024.19l-0.024,1.58a1.8,1.8,0,0,1-3.593-.01v-3.53l0.006-3.53a0.58,0.58,0,0,1,.6-0.59,0.6,0.6,0,0,1,.6.59v1.77c0,0.08,0,.15.007,0.23,0,0.02-.007.04-0.007,0.06v1.18a0.9,0.9,0,0,0,1.794,0v-1.18a0.725,0.725,0,0,0-.009-0.08c0-.07.009-0.14,0.009-0.21v-1.77a2.39,2.39,0,0,0-2.392-2.35,2.351,2.351,0,0,0-2.391,2.35l0,0.82c0,0.02-.006.04-0.006,0.06v6.18a3.592,3.592,0,0,0,7.182.01v-3.54Z" transform="translate(-697.656 -1268.38)"/>
</svg>
