<svg xmlns="http://www.w3.org/2000/svg" width="43" height="18.88" viewBox="0 0 43 18.88">
  <defs>
    <style>
      .cls-1 {
        fill: #fff;
        fill-rule: evenodd;
        opacity: 0.22;
      }
    </style>
  </defs>
  <path id="Forma_1_копия_2" data-name="Forma 1 копия 2" class="cls-1" d="M30.253,5994.8l9.553-8.6a0.814,0.814,0,0,1,.871-0.12,0.712,0.712,0,0,1,.473.71v5.51H72.2a0.769,0.769,0,0,1,.572.22,0.738,0.738,0,0,1,.224.56v4.72a0.736,0.736,0,0,1-.224.56,0.77,0.77,0,0,1-.572.22H41.15v5.51a0.748,0.748,0,0,1-.473.71,0.785,0.785,0,0,1-.871-0.15l-9.553-8.69a0.808,0.808,0,0,1-.248-0.59A0.766,0.766,0,0,1,30.253,5994.8Z" transform="translate(-30 -5986)"/>
</svg>
