<svg xmlns="http://www.w3.org/2000/svg" width="7" height="12" viewBox="0 0 7 12">
  <defs>
    <style>
      .cls-1 {
        fill: #fff;
        fill-rule: evenodd;
      }
    </style>
  </defs>
  <path id="ic_fb" class="cls-1" d="M407.726,5640.01h-1.677a2.84,2.84,0,0,0-3.1,2.95v1.37h-1.687a0.254,0.254,0,0,0-.264.24v1.97a0.256,0.256,0,0,0,.264.25h1.687v4.98a0.254,0.254,0,0,0,.264.24h2.2a0.254,0.254,0,0,0,.264-0.24v-4.98h1.972a0.256,0.256,0,0,0,.264-0.25v-1.97a0.229,0.229,0,0,0-.077-0.17,0.257,0.257,0,0,0-.187-0.07h-1.973v-1.16c0-.55.143-0.84,0.922-0.84h1.13a0.254,0.254,0,0,0,.264-0.24v-1.83A0.256,0.256,0,0,0,407.726,5640.01Z" transform="translate(-401 -5640)"/>
</svg>
