<svg xmlns="http://www.w3.org/2000/svg" width="14" height="14" viewBox="0 0 14 14">
  <defs>
    <style>
      .cls-1 {
        fill: #fff;
        fill-rule: evenodd;
      }
    </style>
  </defs>
  <path id="ic_insta" class="cls-1" d="M447.625,5639h-5.25a4.375,4.375,0,0,0-4.375,4.37v5.25a4.377,4.377,0,0,0,4.375,4.38h5.25a4.377,4.377,0,0,0,4.375-4.38v-5.25A4.375,4.375,0,0,0,447.625,5639Zm3.062,9.62a3.071,3.071,0,0,1-3.062,3.07h-5.25a3.072,3.072,0,0,1-3.063-3.07v-5.25a3.07,3.07,0,0,1,3.063-3.06h5.25a3.069,3.069,0,0,1,3.062,3.06v5.25ZM445,5642.5a3.5,3.5,0,1,0,3.5,3.5A3.5,3.5,0,0,0,445,5642.5Zm0,5.69a2.19,2.19,0,1,1,2.188-2.19A2.19,2.19,0,0,1,445,5648.19Zm3.762-6.42a0.465,0.465,0,1,1-.466.47A0.468,0.468,0,0,1,448.762,5641.77Z" transform="translate(-438 -5639)"/>
</svg>
