<svg xmlns="http://www.w3.org/2000/svg" width="263.031" height="55" viewBox="0 0 263.031 55">
  <defs>
    <style>
      .cls-1 {
        fill: #fff;
        stroke: #000;
        stroke-linecap: round;
        stroke-linejoin: round;
        stroke-width: 0;
        fill-rule: evenodd;
      }
    </style>
  </defs>
  <path id="Фигура_600" data-name="Фигура 600" class="cls-1" d="M905.827,349.491h-7.322v31.272h7.631c4.852,0,7.366-2.591,7.366-7.416V370.8c0-3.306-1.015-5.674-3.617-6.7,2.161-1.027,3.132-3.082,3.132-6.3v-1.117C913.017,351.859,910.855,349.491,905.827,349.491Zm-0.309,17.2c2.206,0,3.132.894,3.132,3.8v2.725c0,2.323-.882,3.083-2.514,3.083h-2.779v-9.605h2.161Zm0.177-12.732c1.72,0,2.47.983,2.47,3.216v1.742c0,2.5-1.1,3.306-2.911,3.306h-1.9v-8.264H905.7Zm12.481,26.8h4.852V349.491h-4.852v31.272Zm10.143,0h7.675c4.852,0,7.234-2.725,7.234-7.729V357.22c0-5-2.382-7.729-7.234-7.729h-7.675v31.272Zm7.587-26.8c1.544,0,2.47.8,2.47,3.038v16.261c0,2.233-.926,3.038-2.47,3.038h-2.735V353.959h2.735Zm11.952-4.468V373.3c0,5,2.47,7.863,7.234,7.863s7.233-2.859,7.233-7.863V349.491h-4.587v24.124c0,2.234-.97,3.038-2.514,3.038s-2.514-.8-2.514-3.038V349.491h-4.852ZM966.779,357c0,8.934,9.483,10.14,9.483,16.574,0,2.233-.97,3.037-2.514,3.037s-2.514-.8-2.514-3.037v-2.234h-4.588v1.921c0,5,2.471,7.862,7.234,7.862s7.234-2.859,7.234-7.862c0-8.935-9.483-10.141-9.483-16.574,0-2.234.882-3.083,2.426-3.083s2.426,0.849,2.426,3.083v1.295h4.587V357c0-5-2.426-7.864-7.146-7.864S966.779,351.993,966.779,357Zm23.4-7.506v31.272h6.793c4.761,0,6.841-3.172,6.841-7.773V357.264c0-4.6-2.08-7.773-6.841-7.773h-6.793Zm2.029,29.4V351.368h4.72c3.4,0,4.855,2.367,4.855,5.807v15.9c0,3.44-1.41,5.807-4.855,5.807h-4.72Zm16.715-29.4v31.272h2.03V349.491h-2.03Zm13.85-.268c-4.72,0-6.66,3.395-6.66,7.908v15.993c0,4.512,1.94,7.907,6.66,7.907s6.66-3.395,6.66-7.907v-8.488h-6.04v1.876h4.1v6.746c0,3.35-1.28,5.852-4.68,5.852s-4.67-2.5-4.67-5.852V357c0-3.351,1.28-5.9,4.67-5.9s4.68,2.547,4.68,5.9v2.456h1.94v-2.322C1029.43,352.618,1027.49,349.223,1022.77,349.223Zm11.82,0.268v31.272h2.03V349.491h-2.03Zm14.69,31.272V351.368h6.26v-1.877h-14.6v1.877h6.31v29.395h2.03Zm21.56-6.925,1.55,6.925h2.03l-6.88-31.316h-2.96l-6.75,31.316h1.86l1.54-6.925h9.61Zm-4.85-22.023,4.55,20.237h-9ZM1091,380.763v-1.877h-9.7v-29.4h-2.03v31.272H1091Zm-211.9-.532C871.262,392.793,859.811,393,859.811,393a21.126,21.126,0,0,0,6.477-4.393,14.172,14.172,0,0,0,3.136-5.3,21.881,21.881,0,0,1-18.933,8.757c-11.8-.76-18.464-10.748-18.464-10.748A32.165,32.165,0,0,0,840,384.39c4.351,0.923,6.331-.088,6.331-0.088s-9.747-.637-15.3-7.966c-4.883-6.131-2.462-15-2.462-15a17.65,17.65,0,0,0,2.14,6.326,8.172,8.172,0,0,0,4.161,3.69s-4.646-6.259-4.748-12.212a16.094,16.094,0,0,1,5.1-11.8,18.308,18.308,0,0,0-.5,5.506,7.505,7.505,0,0,0,1.582,3.69A14.522,14.522,0,0,1,839.061,344c4.013-5.457,12.4-6,12.4-6a23.588,23.588,0,0,0-5.715,3.134,5.988,5.988,0,0,0-2.051,3.485s3.481-5.7,14.984-5.383a22.787,22.787,0,0,1,16.492,7.462,20.425,20.425,0,0,0-34.583,15.375,20.507,20.507,0,0,1,1.964-3.982,18.055,18.055,0,0,1,2.813-3.193,4.789,4.789,0,0,0-.879-0.088,4.648,4.648,0,0,0-.762.088,12.048,12.048,0,0,1,2.99-3.133,17.579,17.579,0,0,1,4.66-2.08,6.265,6.265,0,0,0-1.114-.293c-0.784-.134-1.788-0.2-1.788-0.2a15.38,15.38,0,0,1,3.312-.966,26.378,26.378,0,0,1,4.22-.264,4.663,4.663,0,0,0-1.114-1.493,9.789,9.789,0,0,0-2.11-1.289c0-.017,6.393.725,12.351,8.265a41.833,41.833,0,0,1,7.7,15.545,1.149,1.149,0,0,1-.1.765,9.538,9.538,0,0,1-1.3,1.432,4.335,4.335,0,0,1-1.788.937,4.619,4.619,0,0,1-1.9-.176c-1.368-.414-3.311-1.027-4.923-1.611-1.762-.638-3.136-1.23-3.136-1.23a14.046,14.046,0,0,1-3.136-2.284,15.451,15.451,0,0,1-2.2-2.929,10.253,10.253,0,0,1-1.612-5.33s-2.167,10.323,8.44,15.756a14.518,14.518,0,0,0,10.991.352,17.551,17.551,0,0,0,6.3-4.54,14.415,14.415,0,0,0,2.931-7,21.755,21.755,0,0,0-1.261-9.079S887.236,365.794,879.1,380.231ZM865.26,360.419a1.507,1.507,0,0,0,.441,1.534,0.873,0.873,0,0,0,.588.027c0.123-.086.185-0.055,0.184,0.1a3.629,3.629,0,0,1,.108.419,2.065,2.065,0,0,1-.214,1.506c0.988-.928.639-2.592,0.174-3.68-0.445-1.045-1.328-2.256-2.592-2.173A2.64,2.64,0,0,1,865.26,360.419Zm0.026-.31a0.041,0.041,0,0,0,0-.011C865.3,360,865.3,359.955,865.286,360.109Zm0,0.009c0,0.065-.013.162-0.025,0.3,0,0,.016-0.19.026-0.312A0.041,0.041,0,0,1,865.285,360.118Z" transform="translate(-827.969 -338)"/>
</svg>
