<svg xmlns="http://www.w3.org/2000/svg" width="160" height="32" viewBox="0 0 160 32">
  <defs>
    <style>
      .cls-1 {
        fill: #fff;
        fill-rule: evenodd;
      }
    </style>
  </defs>
  <path id="ic_logo_bd" class="cls-1" d="M169.2,271.806h-4.4v18.531h4.589c2.917,0,4.429-1.535,4.429-4.394v-1.509c0-1.959-.61-3.362-2.175-3.971,1.3-.609,1.883-1.827,1.883-3.733v-0.662C173.522,273.209,172.223,271.806,169.2,271.806ZM169.013,282c1.326,0,1.883.529,1.883,2.25v1.615c0,1.377-.53,1.827-1.511,1.827h-1.671V282h1.3Zm0.106-7.545c1.035,0,1.486.583,1.486,1.906v1.033c0,1.482-.663,1.959-1.751,1.959h-1.14v-4.9h1.405Zm7.5,15.884h2.918V271.806h-2.918v18.531Zm6.1,0h4.615c2.917,0,4.35-1.615,4.35-4.58v-9.371c0-2.965-1.433-4.58-4.35-4.58h-4.615v18.531Zm4.562-15.884c0.928,0,1.485.477,1.485,1.8v9.637c0,1.324-.557,1.8-1.485,1.8h-1.644V274.453h1.644Zm7.187-2.647v14.11c0,2.965,1.485,4.659,4.349,4.659s4.35-1.694,4.35-4.659v-14.11h-2.759v14.3c0,1.324-.583,1.8-1.511,1.8s-1.512-.477-1.512-1.8v-14.3h-2.917Zm11.377,4.447c0,5.3,5.7,6.01,5.7,9.822,0,1.324-.584,1.8-1.512,1.8s-1.512-.476-1.512-1.8v-1.324h-2.758v1.139c0,2.965,1.485,4.659,4.35,4.659s4.349-1.694,4.349-4.659c0-5.295-5.7-6.009-5.7-9.822,0-1.324.53-1.827,1.459-1.827s1.458,0.5,1.458,1.827v0.768h2.759v-0.583c0-2.965-1.459-4.659-4.3-4.659S205.849,273.288,205.849,276.253Zm16.521-4.447v18.531h4.085c2.864,0,4.11-1.879,4.11-4.606v-9.319c0-2.727-1.246-4.606-4.11-4.606H222.37Zm1.22,17.419V272.917h2.838c2.042,0,2.918,1.4,2.918,3.442v9.425c0,2.038-.849,3.441-2.918,3.441H223.59Zm10.051-17.419v18.531h1.22V271.806h-1.22Zm8.327-.159c-2.837,0-4,2.012-4,4.686v9.477c0,2.674,1.167,4.686,4,4.686s4.005-2.012,4.005-4.686v-5.03H242.34v1.112h2.466v4c0,1.985-.769,3.468-2.811,3.468s-2.811-1.483-2.811-3.468v-9.637c0-1.985.769-3.494,2.811-3.494s2.811,1.509,2.811,3.494v1.456h1.167v-1.376C245.973,273.659,244.806,271.647,241.968,271.647Zm7.107,0.159v18.531h1.22V271.806h-1.22Zm8.832,18.531v-17.42h3.766v-1.111h-8.779v1.111h3.793v17.42h1.22Zm12.968-4.1,0.928,4.1h1.22l-4.137-18.558h-1.777l-4.058,18.558h1.114l0.928-4.1h5.782Zm-2.917-13.051,2.731,11.992h-5.41Zm15.036,17.154v-1.112H277.16V271.806h-1.22v18.531h7.054Zm-128.5-14.486a19.526,19.526,0,0,1,.658,2.272,15.569,15.569,0,0,1,.282,4.583,16.175,16.175,0,0,1-2.755,7.649A14.869,14.869,0,0,1,141.788,297a9.39,9.39,0,0,0,5.7-5.667,12.813,12.813,0,0,1-15.056,4.252,15.412,15.412,0,0,1-7-5.409,13.836,13.836,0,0,0,3.7,1.572,14.013,14.013,0,0,0,1.959.4,9.9,9.9,0,0,0,1.089.086c0.2,0,.4,0,0.6-0.014a0.492,0.492,0,0,1,.3.021c-0.031-.011-0.059-0.032-0.089-0.046a4.538,4.538,0,0,0,.886-0.256c-4.278-.409-8.773-2.754-10.3-6.983-0.769-2.057.923,2.566,0,0a11.193,11.193,0,0,1-.188-6.433,8.711,8.711,0,0,0,1.05,3.408,5.079,5.079,0,0,0,2.656,2.464,1.09,1.09,0,0,1-.116-0.336c-0.007.022-.027,0.04-0.036,0.062a12.315,12.315,0,0,1-2.613-7.255,9.425,9.425,0,0,1,3-6.45,12.4,12.4,0,0,0-.218,2.852,3.6,3.6,0,0,0,.867,2.548,8.361,8.361,0,0,1,1.854-7.582A11.141,11.141,0,0,1,136.9,265a16.6,16.6,0,0,0-2.716,1.343,5.386,5.386,0,0,0-1.126.976,4.008,4.008,0,0,0-.452.644,3.4,3.4,0,0,0-.308.914,7.438,7.438,0,0,1,1.613-1.49,8.658,8.658,0,0,1,1.975-.906,16.677,16.677,0,0,1,4.674-.743,12.629,12.629,0,0,1,4.558.679,15.2,15.2,0,0,1,3.967,2.041,19.491,19.491,0,0,1,1.835,1.6c-0.121-.11-0.241-0.221-0.363-0.33q0.192,0.2.374,0.406a12,12,0,0,0-8.03-3.416,12.175,12.175,0,0,0-8.345,2.987,12.032,12.032,0,0,0-4.086,9.327,10.015,10.015,0,0,1,1.746-3.081,10.367,10.367,0,0,1,.738-0.816,1.135,1.135,0,0,1,.349-0.287,2.973,2.973,0,0,0-.969,0,6.942,6.942,0,0,1,3.722-2.8c1.445-.447,1.059-0.247.916-0.337a1.088,1.088,0,0,0-.423-0.09,1.344,1.344,0,0,1,.986-0.081,11.367,11.367,0,0,1,2.382.289,12.647,12.647,0,0,1,4.1,1.852,9.6,9.6,0,0,1,1.654,1.388,9.956,9.956,0,0,1,1.313,1.861,26.96,26.96,0,0,1,1.952,4.341c0.129,0.363.249,0.729,0.355,1.1,0.052,0.18.1,0.362,0.144,0.545a0.61,0.61,0,0,1,.022.5,3.8,3.8,0,0,1-1.6,1.365,3.4,3.4,0,0,1-2.119-.25c-0.794-.229-1.576-0.485-2.35-0.774a13.945,13.945,0,0,1-2.1-.88,6.938,6.938,0,0,1-1.641-1.339,7.686,7.686,0,0,1-1.964-3.751,3.876,3.876,0,0,1-.054-0.847,8.561,8.561,0,0,0,1.843,6.814,8.608,8.608,0,0,0,14.457-1.891,5.917,5.917,0,0,0,.536-1.8s0.437-3.634-.719-5.765A10.756,10.756,0,0,1,154.491,275.851Zm-9.473,2.2a0.872,0.872,0,0,0,.261.893,0.529,0.529,0,0,0,.347.015c0.072-.05.108-0.032,0.108,0.056a2.369,2.369,0,0,1,.064.244,1.193,1.193,0,0,1-.126.876,1.943,1.943,0,0,0,.1-2.141,1.764,1.764,0,0,0-1.528-1.263,1.528,1.528,0,0,1,.772,1.32h0Zm0.008-.083c0-.05.008-0.09,0.009-0.11C145.034,277.874,145.031,277.91,145.026,277.967Zm2.093-.849s-3.256-6.234-8.693-7.718c-2.35-.642,1.3.048,1.306,2.14,0,0.968-1.308,1.788-1.907,2.032m5.789-.914s-2.371-3.038-7.8-1.4c-2.108.637,1.238-.086,1.764,1.135,0.345,0.8-.481,2.188-0.89,2.7" transform="translate(-123 -265)"/>
</svg>
