<svg xmlns="http://www.w3.org/2000/svg" width="16" height="13" viewBox="0 0 16 13">
  <defs>
    <style>
      .cls-1 {
        fill: #fff;
        fill-rule: evenodd;
      }
    </style>
  </defs>
  <path id="ic_twitter_alt" class="cls-1" d="M661.559,1039.24a6.567,6.567,0,0,1-2.086.8,3.284,3.284,0,0,0-5.593,2.99,9.317,9.317,0,0,1-6.766-3.43,3.287,3.287,0,0,0,1.016,4.38,3.253,3.253,0,0,1-1.486-.41v0.04a3.285,3.285,0,0,0,2.632,3.22,3.5,3.5,0,0,1-.864.11,3.151,3.151,0,0,1-.618-0.06,3.291,3.291,0,0,0,3.065,2.29,6.583,6.583,0,0,1-4.076,1.4c-0.265,0-.526-0.02-0.783-0.04a9.34,9.34,0,0,0,14.37-7.87l-0.01-.43a6.54,6.54,0,0,0,1.64-1.69,6.624,6.624,0,0,1-1.885.52A3.345,3.345,0,0,0,661.559,1039.24Z" transform="translate(-646 -1039)"/>
</svg>
