<svg xmlns="http://www.w3.org/2000/svg" width="36.031" height="36" viewBox="0 0 36.031 36">
  <defs>
    <style>
      .cls-1 {
        fill: #fff;
        fill-rule: evenodd;
      }
    </style>
  </defs>
  <path id="Фигура_2_копия" data-name="Фигура 2 копия" class="cls-1" d="M63.455,5159.64c-5.129,8.22-12.627,8.36-12.627,8.36a13.894,13.894,0,0,0,4.241-2.88,9.216,9.216,0,0,0,2.053-3.47,14.337,14.337,0,0,1-12.4,5.74c-7.727-.5-12.089-7.04-12.089-7.04a20.788,20.788,0,0,0,5.22,2.01c2.849,0.61,4.145-.05,4.145-0.05s-6.382-.42-10.017-5.22c-3.2-4.01-1.612-9.81-1.612-9.81a11.551,11.551,0,0,0,1.4,4.14,5.322,5.322,0,0,0,2.725,2.41s-3.042-4.09-3.109-7.99a10.549,10.549,0,0,1,3.339-7.73,12.039,12.039,0,0,0-.326,3.61,4.872,4.872,0,0,0,1.036,2.41,9.492,9.492,0,0,1,1.8-8.2c2.627-3.57,8.117-3.93,8.117-3.93a15.29,15.29,0,0,0-3.742,2.05,3.915,3.915,0,0,0-1.343,2.28s2.279-3.73,9.811-3.52a14.9,14.9,0,0,1,10.8,4.88,13.378,13.378,0,0,0-22.644,10.07,13.361,13.361,0,0,1,1.286-2.61,11.725,11.725,0,0,1,1.842-2.09,3.534,3.534,0,0,0-.576-0.06,3.684,3.684,0,0,0-.5.06,7.927,7.927,0,0,1,1.957-2.05,11.556,11.556,0,0,1,3.051-1.36,3.813,3.813,0,0,0-.729-0.19c-0.513-.09-1.171-0.14-1.171-0.14a10.11,10.11,0,0,1,2.169-.63,17.2,17.2,0,0,1,2.763-.17,3.039,3.039,0,0,0-.729-0.98,6.108,6.108,0,0,0-1.382-.84c0-.02,4.186.47,8.086,5.4a27.416,27.416,0,0,1,5.039,10.18,0.753,0.753,0,0,1-.068.5,6.543,6.543,0,0,1-.853.94,2.8,2.8,0,0,1-1.171.61,3.135,3.135,0,0,1-1.247-.11c-0.9-.28-2.168-0.68-3.224-1.06-1.154-.42-2.053-0.8-2.053-0.8a9.268,9.268,0,0,1-2.053-1.5,9.994,9.994,0,0,1-1.439-1.92,6.677,6.677,0,0,1-1.055-3.48,9.671,9.671,0,0,0,5.527,10.31,9.529,9.529,0,0,0,7.2.23,11.5,11.5,0,0,0,4.126-2.97,9.459,9.459,0,0,0,1.919-4.58,14.263,14.263,0,0,0-.825-5.95S68.785,5150.19,63.455,5159.64ZM54.4,5146.67a1,1,0,0,0,.289,1.01,0.566,0.566,0,0,0,.385.01c0.081-.05.121-0.03,0.121,0.07a2.607,2.607,0,0,1,.071.27,1.358,1.358,0,0,1-.14.99,2.211,2.211,0,0,0,.114-2.41,1.961,1.961,0,0,0-1.7-1.42A1.719,1.719,0,0,1,54.4,5146.67Zm0.017-.2a0.022,0.022,0,0,0,0-.01C54.419,5146.4,54.422,5146.37,54.413,5146.47Zm0,0.01c0,0.04-.009.1-0.017,0.19,0,0,.011-0.12.018-0.2A0.025,0.025,0,0,0,54.413,5146.48Z" transform="translate(-30 -5132)"/>
</svg>
