<svg xmlns="http://www.w3.org/2000/svg" width="400" height="167" viewBox="0 0 400 167">
  <defs>
    <style>
      .cls-1 {
        fill: #fff;
        fill-rule: evenodd;
      }
    </style>
  </defs>
  <path id="Фигура_2_копия_38" data-name="Фигура 2 копия 38" class="cls-1" d="M223.314,16.753H206.13V89.287h17.908c11.387,0,17.287-6.01,17.287-17.2V66.18c0-7.668-2.38-13.16-8.488-15.543,5.072-2.383,7.35-7.15,7.35-14.61v-2.59C240.187,22.245,235.114,16.753,223.314,16.753Zm-0.725,39.894c5.176,0,7.35,2.072,7.35,8.807v6.321c0,5.388-2.071,7.15-5.9,7.15h-6.521V56.647h5.072ZM223,27.115c4.037,0,5.8,2.28,5.8,7.461v4.041c0,5.8-2.588,7.668-6.832,7.668h-4.451V27.115H223Zm29.291,62.172h11.387V16.753H252.294V89.287Zm23.806,0h18.012c11.386,0,16.976-6.321,16.976-17.926V34.679c0-11.605-5.59-17.926-16.976-17.926H276.1V89.287Zm17.8-62.172c3.623,0,5.8,1.866,5.8,7.046V71.879c0,5.181-2.173,7.046-5.8,7.046h-6.418V27.115H293.9Zm28.048-10.362v55.23c0,11.605,5.8,18.237,16.977,18.237s16.976-6.632,16.976-18.237V16.753H345.141V72.708c0,5.181-2.278,7.046-5.9,7.046s-5.9-1.865-5.9-7.046V16.753H321.953Zm44.405,17.408c0,20.724,22.256,23.521,22.256,38.443,0,5.181-2.277,7.046-5.9,7.046s-5.9-1.865-5.9-7.046V67.423H366.048v4.456c0,11.605,5.8,18.237,16.976,18.237S400,83.484,400,71.879c0-20.724-22.256-23.522-22.256-38.443,0-5.181,2.07-7.15,5.693-7.15s5.694,1.969,5.694,7.15v3H399.9V34.161c0-11.606-5.693-18.237-16.769-18.237S366.358,22.556,366.358,34.161Zm-160.712,74.8v42.672h9.378c6.577,0,9.44-4.329,9.44-10.608V119.563c0-6.278-2.863-10.606-9.44-10.606h-9.378Zm2.8,40.111V111.517h6.516c4.69,0,6.7,3.231,6.7,7.924v21.7c0,4.694-1.949,7.925-6.7,7.925h-6.516Zm24.293-40.111v42.672h2.8V108.957h-2.8Zm20.338-.366c-6.516,0-9.2,4.633-9.2,10.789V141.2c0,6.157,2.68,10.79,9.2,10.79s9.2-4.633,9.2-10.79V129.622h-8.343v2.56h5.663v9.205c0,4.572-1.766,7.986-6.455,7.986s-6.455-3.414-6.455-7.986V119.2c0-4.571,1.766-8.046,6.455-8.046s6.455,3.475,6.455,8.046v3.354h2.68V119.38C262.274,113.224,259.594,108.591,253.078,108.591Zm17.534,0.366v42.672h2.8V108.957h-2.8Zm21.494,42.672V111.517h8.648v-2.56H280.6v2.56h8.709v40.112h2.8ZM323.1,142.18l2.132,9.449h2.8l-9.5-42.733h-4.08l-9.318,42.733h2.558l2.131-9.449H323.1Zm-6.7-30.054,6.273,27.615H310.249Zm35.742,39.5v-2.561h-13.4V108.957h-2.8v42.672h16.2Zm-188.094-95a101.423,101.423,0,0,1,3.429,11.858,81.457,81.457,0,0,1,1.467,23.917A84.537,84.537,0,0,1,154.6,132.327c-12.82,18.885-33.585,32.905-56.727,34.672,13.073-5.158,25.677-15.721,29.687-29.574-8.887,11.39-20.724,20.077-34.641,24.243-14.313,4.283-29.9,3.229-43.8-2.053a80.305,80.305,0,0,1-36.472-28.228,72.19,72.19,0,0,0,19.262,8.2,72.819,72.819,0,0,0,10.2,2.07,50.1,50.1,0,0,0,5.672.448c1.037,0.018,2.076,0,3.11-.07a2.518,2.518,0,0,1,1.544.11,5,5,0,0,1-.462-0.243,23.529,23.529,0,0,0,4.615-1.336C34.3,138.439,10.882,126.2,2.955,104.131c-4.006-10.735,4.811,13.392,0,0-4-10.725-3.537-22.575-.978-33.575A45.476,45.476,0,0,0,7.445,88.34c3.1,5.5,7.648,10.833,13.836,12.861a5.663,5.663,0,0,1-.6-1.753c-0.039.115-.141,0.208-0.186,0.321C12.635,88.7,6.579,75.727,6.876,61.907c0.275-12.934,6.509-24.692,15.618-33.662a64.906,64.906,0,0,0-1.132,14.886c0.252,4.567.877,10.06,4.517,13.3-3.215-14.01-.164-28.8,9.655-39.57C44.947,6.529,58.771,1.541,72.4,0c-4.833,2.077-9.757,4.078-14.152,7.007A28.181,28.181,0,0,0,52.383,12.1a21.141,21.141,0,0,0-2.351,3.361,17.711,17.711,0,0,0-1.61,4.769,38.619,38.619,0,0,1,8.407-7.772A44.782,44.782,0,0,1,67.119,7.729,86.592,86.592,0,0,1,91.469,3.852a65.6,65.6,0,0,1,23.743,3.542,79.287,79.287,0,0,1,20.669,10.65,101.544,101.544,0,0,1,9.559,8.344c-0.63-.573-1.255-1.15-1.889-1.718,0.666,0.69,1.318,1.392,1.945,2.117A62.46,62.46,0,0,0,103.665,8.959,62.736,62.736,0,0,0,38.9,73.226,52.286,52.286,0,0,1,48,57.146a54.3,54.3,0,0,1,3.842-4.258,5.9,5.9,0,0,1,1.821-1.5,15.4,15.4,0,0,0-5.049-.02C52.729,44.514,60.624,39.088,68,36.776c7.528-2.331,5.52-1.292,4.773-1.759a5.685,5.685,0,0,0-2.205-.469c4.051-1.193.938-.534,5.137-0.423A59.127,59.127,0,0,1,88.12,35.633,65.855,65.855,0,0,1,109.5,45.3a50,50,0,0,1,8.617,7.245,52.106,52.106,0,0,1,6.839,9.713,140.168,140.168,0,0,1,10.169,22.655c0.675,1.894,1.3,3.805,1.854,5.738,0.27,0.942.525,1.89,0.751,2.844,0.185,0.789.677,1.908,0.114,2.621-2.267,2.871-4.762,5.856-8.327,7.122-3.789,1.346-7.4-.254-11.041-1.3q-6.2-1.788-12.24-4.038A72.465,72.465,0,0,1,95.3,93.3a36.22,36.22,0,0,1-8.547-6.986c-4.912-5.369-9.006-12.343-10.231-19.575a19.978,19.978,0,0,1-.28-4.419,44.768,44.768,0,0,0,84.915,25.688,30.978,30.978,0,0,0,2.794-9.4s2.274-18.964-3.746-30.087A56.376,56.376,0,0,1,164.048,56.632ZM114.7,68.111c-0.18,1.437-.2,3.921,1.356,4.655a2.733,2.733,0,0,0,1.807.08c0.378-.262.566-0.165,0.565,0.3a11.411,11.411,0,0,1,.331,1.273,6.205,6.205,0,0,1-.657,4.57c3.035-2.819,1.962-7.871.535-11.172-1.368-3.17-4.08-6.844-7.962-6.592,2.26,1.482,4.271,4.058,4.025,6.891C114.7,68.116,114.944,65.3,114.7,68.111Zm0.039-.434c0.022-.261.04-0.472,0.048-0.577C114.781,67.19,114.764,67.378,114.739,67.677Zm10.9-4.432S108.679,30.709,80.357,22.964c-12.244-3.348,6.778.254,6.8,11.17,0.012,5.052-6.814,9.331-9.938,10.6m30.162-4.771s-12.353-15.851-40.623-7.3c-10.983,3.322,6.453-.447,9.194,5.924,1.8,4.175-2.508,11.418-4.64,14.111"/>
</svg>
